RobotoFlex-opsz144-wght100.ufo
<glyph name="quotesingle" format="2">
  <advance width="190"/>
  <unicode hex="0027"/>
  <outline>
    <contour>
      <point x="92" y="1113" type="line"/>
      <point x="90" y="1361" type="line"/>
      <point x="90" y="1456" type="line"/>
      <point x="100" y="1456" type="line"/>
      <point x="100" y="1361" type="line"/>
      <point x="98" y="1113" type="line"/>
    </contour>
  </outline>
</glyph>
<glyph name="plus" format="2">
  <advance width="1024"/>
  <unicode hex="002B"/>
  <outline>
    <contour>
      <point x="82" y="670" type="line"/>
      <point x="82" y="678" type="line"/>
      <point x="942" y="678" type="line"/>
      <point x="942" y="670" type="line"/>
    </contour>
    <contour>
      <point x="507" y="213" type="line"/>
      <point x="507" y="1135" type="line"/>
      <point x="517" y="1135" type="line"/>
      <point x="517" y="213" type="line"/>
    </contour>
  </outline>
</glyph>
<glyph name="hyphen" format="2">
  <advance width="557"/>
  <unicode hex="002D"/>
  <outline>
    <contour>
      <point x="40" y="651" type="line"/>
      <point x="40" y="661" type="line"/>
      <point x="517" y="661" type="line"/>
      <point x="517" y="651" type="line"/>
    </contour>
  </outline>
</glyph>
<glyph name="slash" format="2">
  <advance width="437"/>
  <unicode hex="002F"/>
  <outline>
    <contour>
      <point x="-100" y="-125" type="line"/>
      <point x="479" y="1456" type="line"/>
      <point x="491" y="1456" type="line"/>
      <point x="-89" y="-125" type="line"/>
    </contour>
  </outline>
</glyph>
<glyph name="four" format="2">
  <advance width="900"/>
  <unicode hex="0034"/>
  <outline>
    <contour>
      <point x="663" y="0" type="line"/>
      <point x="663" y="378" type="line"/>
      <point x="663" y="382" type="line"/>
      <point x="663" y="1446" type="line"/>
      <point x="659" y="1446" type="line"/>
      <point x="75" y="385" type="line"/>
      <point x="666" y="385" type="line"/>
      <point x="670" y="385" type="line"/>
      <point x="866" y="385" type="line"/>
      <point x="866" y="375" type="line"/>
      <point x="65" y="375" type="line"/>
      <point x="65" y="388" type="line"/>
      <point x="653" y="1456" type="line"/>
      <point x="673" y="1456" type="line"/>
      <point x="673" y="0" type="line"/>
    </contour>
  </outline>
</glyph>
<glyph name="seven" format="2">
	<unicode hex="0037"/>
	<advance width="900"/>
	<outline>
		<contour>
			<point x="268" y="0" type="line"/>
			<point x="780" y="1447" type="line"/>
			<point x="70" y="1447" type="line"/>
			<point x="70" y="1456" type="line"/>
			<point x="791" y="1456" type="line"/>
			<point x="791" y="1449" type="line"/>
			<point x="279" y="0" type="line"/>
		</contour>
	</outline>
</glyph>
<glyph name="nine" format="2">
  <advance width="900"/>
  <unicode hex="0039"/>
  <outline>
    <contour>
      <point x="47" y="1001" type="qcurve" smooth="yes"/>
      <point x="47" y="1235"/>
      <point x="263" y="1476"/>
      <point x="435" y="1476" type="qcurve" smooth="yes"/>
      <point x="614" y="1476"/>
      <point x="835" y="1176"/>
      <point x="835" y="842" type="qcurve" smooth="yes"/>
      <point x="835" y="812" type="line" smooth="yes"/>
      <point x="835" y="397"/>
      <point x="501.0" y="-20.0"/>
      <point x="230" y="-20" type="qcurve" smooth="yes"/>
      <point x="211" y="-20" type="line"/>
      <point x="211" y="-10" type="line"/>
      <point x="230" y="-10" type="line" smooth="yes"/>
      <point x="494" y="-10"/>
      <point x="825" y="405"/>
      <point x="825" y="822" type="qcurve" smooth="yes"/>
      <point x="825" y="842" type="line" smooth="yes"/>
      <point x="825" y="1170"/>
      <point x="607" y="1466"/>
      <point x="435" y="1466" type="qcurve" smooth="yes"/>
      <point x="267" y="1466"/>
      <point x="57" y="1230"/>
      <point x="57" y="1001" type="qcurve" smooth="yes"/>
      <point x="57" y="794"/>
      <point x="261.0" y="584.0"/>
      <point x="410" y="584" type="qcurve" smooth="yes"/>
      <point x="574" y="584"/>
      <point x="810.0" y="841.0"/>
      <point x="820" y="996" type="qcurve"/>
      <point x="828" y="996" type="line"/>
      <point x="818.0" y="835.0"/>
      <point x="576" y="574"/>
      <point x="409.0" y="574.0" type="qcurve" smooth="yes"/>
      <point x="255" y="574"/>
      <point x="47" y="787"/>
    </contour>
  </outline>
</glyph>
<glyph name="less" format="2">
  <advance width="941"/>
  <unicode hex="003C"/>
  <outline>
    <contour>
      <point x="841" y="316" type="line"/>
      <point x="100" y="667" type="line"/>
      <point x="100" y="680" type="line"/>
      <point x="841" y="1033" type="line"/>
      <point x="841" y="1022" type="line"/>
      <point x="108" y="674" type="line"/>
      <point x="841" y="327" type="line"/>
    </contour>
  </outline>
</glyph>
<glyph name="equal" format="2">
  <advance width="1024"/>
  <unicode hex="003D"/>
  <outline>
    <contour>
      <point x="92.0" y="489.0" type="line"/>
      <point x="92.0" y="497.0" type="line"/>
      <point x="932.0" y="497.0" type="line"/>
      <point x="932.0" y="489.0" type="line"/>
    </contour>
    <contour>
      <point x="92.0" y="870.0" type="line"/>
      <point x="92.0" y="878.0" type="line"/>
      <point x="932.0" y="878.0" type="line"/>
      <point x="932.0" y="870.0" type="line"/>
    </contour>
  </outline>
</glyph>
<glyph name="B" format="2">
  <advance width="1001"/>
  <unicode hex="0042"/>
  <anchor x="500.5" y="0" name="bottom"/>
  <anchor x="500.5" y="1456" name="top"/>
  <outline>
    <contour>
      <point x="150" y="0" type="line"/>
      <point x="150" y="1456" type="line"/>
      <point x="505" y="1456" type="line" smooth="yes"/>
      <point x="685" y="1456"/>
      <point x="887" y="1299"/>
      <point x="887" y="1111" type="qcurve" smooth="yes"/>
      <point x="887" y="952"/>
      <point x="736" y="771"/>
      <point x="603" y="763" type="qcurve"/>
      <point x="603" y="762" type="line"/>
      <point x="744" y="757"/>
      <point x="926" y="567"/>
      <point x="926" y="385" type="qcurve" smooth="yes"/>
      <point x="926" y="207"/>
      <point x="738" y="0"/>
      <point x="537" y="0" type="qcurve" smooth="yes"/>
    </contour>
    <contour>
      <point x="160" y="10" type="line"/>
      <point x="542" y="10" type="line" smooth="yes"/>
      <point x="731" y="10"/>
      <point x="916" y="209"/>
      <point x="916" y="384" type="qcurve" smooth="yes"/>
      <point x="916" y="556"/>
      <point x="732" y="757"/>
      <point x="542" y="757" type="qcurve" smooth="yes"/>
      <point x="160" y="757" type="line"/>
    </contour>
    <contour>
      <point x="160" y="767" type="line"/>
      <point x="531" y="767" type="line" smooth="yes"/>
      <point x="721" y="767"/>
      <point x="877" y="955"/>
      <point x="877" y="1111" type="qcurve" smooth="yes"/>
      <point x="877" y="1295"/>
      <point x="679" y="1446"/>
      <point x="505" y="1446" type="qcurve" smooth="yes"/>
      <point x="160" y="1446" type="line"/>
    </contour>
  </outline>
</glyph>
<glyph name="I" format="2">
	<unicode hex="0049"/>
	<advance width="318"/>
	<outline>
		<contour>
			<point x="154" y="0" type="line"/>
			<point x="154" y="1456" type="line"/>
			<point x="164" y="1456" type="line"/>
			<point x="164" y="0" type="line"/>
		</contour>
	</outline>
</glyph>
<glyph name="J" format="2">
  <advance width="852"/>
  <unicode hex="004A"/>
  <anchor x="383.0" y="0" name="bottom"/>
  <anchor x="723.0" y="1456" name="top"/>
  <outline>
    <contour>
      <point x="37" y="395" type="qcurve" smooth="yes"/>
      <point x="37" y="435" type="line"/>
      <point x="47" y="435" type="line"/>
      <point x="47" y="404" type="line" smooth="yes"/>
      <point x="47" y="187"/>
      <point x="228" y="-10"/>
      <point x="383" y="-10" type="qcurve" smooth="yes"/>
      <point x="543" y="-10"/>
      <point x="718" y="206"/>
      <point x="718" y="459" type="qcurve" smooth="yes"/>
      <point x="718" y="1456" type="line"/>
      <point x="728" y="1456" type="line"/>
      <point x="728" y="450" type="line" smooth="yes"/>
      <point x="728" y="203"/>
      <point x="548" y="-20"/>
      <point x="383" y="-20" type="qcurve" smooth="yes"/>
      <point x="225" y="-20"/>
      <point x="37" y="184"/>
    </contour>
  </outline>
</glyph>
<glyph name="T" format="2">
  <advance width="940"/>
  <unicode hex="0054"/>
  <anchor x="470.0" y="0" name="bottom"/>
  <anchor x="470.0" y="728.0" name="center"/>
  <anchor x="470.0" y="1456" name="top"/>
  <outline>
    <contour>
      <point x="10" y="1446" type="line"/>
      <point x="10" y="1456" type="line"/>
      <point x="930" y="1456" type="line"/>
      <point x="930" y="1446" type="line"/>
      <point x="475" y="1446" type="line"/>
      <point x="475" y="0" type="line"/>
      <point x="465" y="0" type="line"/>
      <point x="465" y="1446" type="line"/>
    </contour>
  </outline>
</glyph>
<glyph name="W" format="2">
  <advance width="1561"/>
  <unicode hex="0057"/>
  <outline>
    <contour>
      <point x="420" y="-8" type="line"/>
      <point x="90" y="1456" type="line"/>
      <point x="101" y="1456" type="line"/>
      <point x="404" y="111" type="line" smooth="yes"/>
      <point x="407" y="96"/>
      <point x="416" y="56"/>
      <point x="423" y="24" type="qcurve"/>
      <point x="425" y="24" type="line"/>
      <point x="432" y="57"/>
      <point x="441" y="95"/>
      <point x="445" y="111" type="qcurve" smooth="yes"/>
      <point x="771" y="1456" type="line"/>
      <point x="784" y="1456" type="line"/>
      <point x="1103" y="112" type="line" smooth="yes"/>
      <point x="1107" y="95"/>
      <point x="1116" y="56"/>
      <point x="1123" y="24" type="qcurve"/>
      <point x="1126" y="24" type="line"/>
      <point x="1133" y="57"/>
      <point x="1142" y="95"/>
      <point x="1146" y="114" type="qcurve" smooth="yes"/>
      <point x="1460" y="1456" type="line"/>
      <point x="1471" y="1456" type="line"/>
      <point x="1128" y="-9" type="line"/>
      <point x="1121" y="-9" type="line"/>
      <point x="806" y="1322" type="line" smooth="yes"/>
      <point x="802" y="1339"/>
      <point x="784" y="1411"/>
      <point x="778" y="1445" type="qcurve"/>
      <point x="777" y="1445" type="line"/>
      <point x="770" y="1411"/>
      <point x="754" y="1340"/>
      <point x="750" y="1322" type="qcurve" smooth="yes"/>
      <point x="427" y="-8" type="line"/>
    </contour>
  </outline>
</glyph>
<glyph name="underscore" format="2">
  <advance width="839"/>
  <unicode hex="005F"/>
  <outline>
    <contour>
      <point x="0.0" y="-233" type="line"/>
      <point x="0.0" y="-225" type="line"/>
      <point x="839" y="-225" type="line"/>
      <point x="839" y="-233" type="line"/>
    </contour>
  </outline>
</glyph>
<glyph name="grave" format="2">
  <advance width="1024"/>
  <unicode hex="0060"/>
  <outline>
    <contour>
      <point x="613" y="1049" type="line"/>
      <point x="356" y="1329" type="line"/>
      <point x="363" y="1334" type="line"/>
      <point x="618" y="1053" type="line"/>
    </contour>
  </outline>
</glyph>
<glyph name="a" format="2">
  <advance width="838"/>
  <unicode hex="0061"/>
  <anchor x="419.0" y="0" name="bottom"/>
  <anchor x="762" y="0" name="ogonek"/>
  <anchor x="419.0" y="914" name="top"/>
  <outline>
    <contour>
      <point x="46" y="245" type="qcurve" smooth="yes"/>
      <point x="46" y="374"/>
      <point x="226.0" y="521.0"/>
      <point x="406" y="521" type="qcurve" smooth="yes"/>
      <point x="715" y="521" type="line"/>
      <point x="715" y="644" type="line" smooth="yes"/>
      <point x="715" y="794"/>
      <point x="568" y="924"/>
      <point x="416" y="924" type="qcurve" smooth="yes"/>
      <point x="261" y="924"/>
      <point x="94" y="794"/>
      <point x="94" y="705" type="qcurve" smooth="yes"/>
      <point x="94" y="649" type="line"/>
      <point x="84" y="649" type="line"/>
      <point x="84" y="706" type="line" smooth="yes"/>
      <point x="84" y="799"/>
      <point x="258" y="934"/>
      <point x="415" y="934" type="qcurve" smooth="yes"/>
      <point x="571" y="934"/>
      <point x="725" y="801"/>
      <point x="725" y="655" type="qcurve" smooth="yes"/>
      <point x="725" y="240" type="line" smooth="yes"/>
      <point x="725" y="166"/>
      <point x="752" y="38"/>
      <point x="768" y="3" type="qcurve"/>
      <point x="768" y="0" type="line"/>
      <point x="757" y="0" type="line"/>
      <point x="741" y="36"/>
      <point x="716" y="154"/>
      <point x="715" y="214" type="qcurve"/>
      <point x="690" y="115"/>
      <point x="491" y="-13"/>
      <point x="339" y="-13" type="qcurve" smooth="yes"/>
      <point x="198" y="-13"/>
      <point x="46" y="121"/>
    </contour>
    <contour>
      <point x="56" y="245" type="qcurve" smooth="yes"/>
      <point x="56" y="126"/>
      <point x="203" y="-3"/>
      <point x="339" y="-3" type="qcurve" smooth="yes"/>
      <point x="503" y="-3"/>
      <point x="715.0" y="154.0"/>
      <point x="715" y="277" type="qcurve" smooth="yes"/>
      <point x="715" y="511" type="line"/>
      <point x="398" y="511" type="line" smooth="yes"/>
      <point x="230" y="511"/>
      <point x="56" y="370"/>
    </contour>
  </outline>
</glyph>
<glyph name="b" format="2">
  <advance width="910"/>
  <unicode hex="0062"/>
  <anchor x="455.0" y="0" name="bottom"/>
  <anchor x="455.0" y="914" name="top"/>
  <outline>
    <contour>
      <point x="123" y="0" type="line"/>
      <point x="123" y="1456" type="line"/>
      <point x="133" y="1456" type="line"/>
      <point x="133" y="758" type="line"/>
      <point x="172" y="824"/>
      <point x="350" y="934"/>
      <point x="475" y="934" type="qcurve"/>
      <point x="644" y="934"/>
      <point x="850" y="689"/>
      <point x="850" y="473" type="qcurve" smooth="yes"/>
      <point x="850" y="458" type="line" smooth="yes"/>
      <point x="850" y="233"/>
      <point x="643" y="-20"/>
      <point x="469" y="-20" type="qcurve" smooth="yes"/>
      <point x="342" y="-20"/>
      <point x="167" y="95"/>
      <point x="133" y="161" type="qcurve"/>
      <point x="133" y="161" type="line"/>
      <point x="133" y="0" type="line"/>
    </contour>
    <contour>
      <point x="133" y="178" type="line"/>
      <point x="173" y="103"/>
      <point x="345" y="-10"/>
      <point x="469" y="-10" type="qcurve" smooth="yes"/>
      <point x="638" y="-10"/>
      <point x="840" y="235"/>
      <point x="840" y="452" type="qcurve" smooth="yes"/>
      <point x="840" y="479" type="line" smooth="yes"/>
      <point x="840" y="683"/>
      <point x="642" y="924"/>
      <point x="476" y="924" type="qcurve" smooth="yes"/>
      <point x="351" y="924"/>
      <point x="173" y="813"/>
      <point x="133" y="742" type="qcurve"/>
    </contour>
  </outline>
</glyph>
<glyph name="d" format="2">
  <advance width="910"/>
  <unicode hex="0064"/>
  <outline>
    <contour>
      <point x="60" y="458" type="qcurve" smooth="yes"/>
      <point x="60" y="474" type="line" smooth="yes"/>
      <point x="60" y="688"/>
      <point x="265" y="934"/>
      <point x="435" y="934" type="qcurve" smooth="yes"/>
      <point x="560" y="934"/>
      <point x="738" y="824"/>
      <point x="777" y="756" type="qcurve"/>
      <point x="777" y="1458" type="line"/>
      <point x="787" y="1458" type="line"/>
      <point x="787" y="0" type="line"/>
      <point x="777" y="0" type="line"/>
      <point x="777" y="170" type="line"/>
      <point x="776" y="170" type="line"/>
      <point x="740" y="104"/>
      <point x="564" y="-10"/>
      <point x="441" y="-10" type="qcurve" smooth="yes"/>
      <point x="267" y="-10"/>
      <point x="60" y="241"/>
    </contour>
    <contour>
      <point x="70" y="451" type="line" smooth="yes"/>
      <point x="70" y="245"/>
      <point x="272" y="0"/>
      <point x="441" y="0" type="qcurve" smooth="yes"/>
      <point x="565" y="0"/>
      <point x="737" y="113"/>
      <point x="777" y="188" type="qcurve"/>
      <point x="777" y="742" type="line"/>
      <point x="737" y="813"/>
      <point x="559" y="923"/>
      <point x="434" y="923" type="qcurve" smooth="yes"/>
      <point x="268" y="923"/>
      <point x="70" y="683"/>
      <point x="70" y="479" type="qcurve" smooth="yes"/>
    </contour>
  </outline>
</glyph>
<glyph name="g" format="2">
  <advance width="910"/>
  <unicode hex="0067"/>
  <anchor x="455.0" y="-416" name="bottom"/>
  <anchor x="455.0" y="914" name="top"/>
  <outline>
    <contour>
      <point x="103" y="-319" type="qcurve"/>
      <point x="110" y="-311" type="line"/>
      <point x="167.0" y="-361.0"/>
      <point x="326" y="-416"/>
      <point x="420" y="-416" type="qcurve" smooth="yes"/>
      <point x="588.0" y="-416.0"/>
      <point x="777.0" y="-193.0"/>
      <point x="777" y="30" type="qcurve" smooth="yes"/>
      <point x="777" y="162" type="line"/>
      <point x="741" y="95"/>
      <point x="568" y="-20"/>
      <point x="441" y="-20" type="qcurve" smooth="yes"/>
      <point x="267" y="-20"/>
      <point x="60" y="232"/>
      <point x="60" y="458" type="qcurve" smooth="yes"/>
      <point x="60" y="473" type="line" smooth="yes"/>
      <point x="60" y="688"/>
      <point x="265" y="934"/>
      <point x="435" y="934" type="qcurve" smooth="yes"/>
      <point x="560" y="934"/>
      <point x="738" y="824"/>
      <point x="776" y="758" type="qcurve"/>
      <point x="777" y="758" type="line"/>
      <point x="777" y="914" type="line"/>
      <point x="787" y="914" type="line"/>
      <point x="787" y="30" type="line" smooth="yes"/>
      <point x="787" y="-199"/>
      <point x="592" y="-426"/>
      <point x="420" y="-426" type="qcurve" smooth="yes"/>
      <point x="317" y="-426"/>
      <point x="158" y="-367"/>
    </contour>
    <contour>
      <point x="70" y="451" type="line" smooth="yes"/>
      <point x="70" y="235"/>
      <point x="272" y="-10"/>
      <point x="441" y="-10" type="qcurve" smooth="yes"/>
      <point x="565" y="-10"/>
      <point x="737" y="103"/>
      <point x="777" y="178" type="qcurve"/>
      <point x="777" y="742" type="line"/>
      <point x="737" y="813"/>
      <point x="559" y="924"/>
      <point x="434" y="924" type="qcurve" smooth="yes"/>
      <point x="268" y="924"/>
      <point x="70" y="683"/>
      <point x="70" y="479" type="qcurve" smooth="yes"/>
    </contour>
  </outline>
</glyph>
<glyph name="j" format="2">
  <advance width="278"/>
  <unicode hex="006A"/>
  <outline>
    <contour>
      <point x="-100" y="-418" type="qcurve"/>
      <point x="-100" y="-406" type="line"/>
      <point x="-86" y="-413"/>
      <point x="-39" y="-426"/>
      <point x="-10" y="-426" type="qcurve" smooth="yes"/>
      <point x="68" y="-426"/>
      <point x="146" y="-312"/>
      <point x="146" y="-200" type="qcurve" smooth="yes"/>
      <point x="146" y="914" type="line"/>
      <point x="156" y="914" type="line"/>
      <point x="156" y="-210" type="line" smooth="yes"/>
      <point x="156" y="-319"/>
      <point x="71" y="-436"/>
      <point x="-10" y="-436" type="qcurve" smooth="yes"/>
      <point x="-41" y="-436"/>
      <point x="-88" y="-423"/>
    </contour>
    <contour>
      <point x="132" y="1262" type="qcurve" smooth="yes"/>
      <point x="132" y="1270"/>
      <point x="143" y="1281"/>
      <point x="153" y="1281" type="qcurve" smooth="yes"/>
      <point x="163" y="1281"/>
      <point x="173" y="1270"/>
      <point x="173" y="1262" type="qcurve" smooth="yes"/>
      <point x="173" y="1253"/>
      <point x="162" y="1242"/>
      <point x="152" y="1242" type="qcurve" smooth="yes"/>
      <point x="142" y="1242"/>
      <point x="132" y="1253"/>
    </contour>
  </outline>
</glyph>
<glyph name="l" format="2">
	<unicode hex="006C"/>
	<advance width="262"/>
	<outline>
		<contour>
			<point x="126" y="0" type="line"/>
			<point x="126" y="1458" type="line"/>
			<point x="136" y="1458" type="line"/>
			<point x="136" y="0" type="line"/>
		</contour>
	</outline>
</glyph>
<glyph name="n" format="2">
  <advance width="908"/>
  <unicode hex="006E"/>
  <anchor x="454.0" y="0" name="bottom"/>
  <anchor x="454.0" y="914" name="top"/>
  <outline>
    <contour>
      <point x="123" y="0" type="line"/>
      <point x="123" y="914" type="line"/>
      <point x="133" y="914" type="line"/>
      <point x="133" y="735" type="line"/>
      <point x="133" y="735" type="line"/>
      <point x="173" y="809"/>
      <point x="357" y="934"/>
      <point x="490" y="934" type="qcurve"/>
      <point x="632" y="934"/>
      <point x="795" y="804"/>
      <point x="795" y="660" type="qcurve" smooth="yes"/>
      <point x="795" y="0" type="line"/>
      <point x="785" y="0" type="line"/>
      <point x="785" y="656" type="line" smooth="yes"/>
      <point x="785" y="796"/>
      <point x="629" y="924"/>
      <point x="490" y="924" type="qcurve" smooth="yes"/>
      <point x="361" y="924"/>
      <point x="179" y="803"/>
      <point x="133" y="724" type="qcurve"/>
      <point x="133" y="0" type="line"/>
    </contour>
  </outline>
</glyph>
<glyph name="r" format="2">
  <advance width="543"/>
  <unicode hex="0072"/>
  <anchor x="271.5" y="0" name="bottom"/>
  <anchor x="302" y="914" name="top"/>
  <outline>
    <contour>
      <point x="123" y="0" type="line"/>
      <point x="123" y="914" type="line"/>
      <point x="133" y="914" type="line"/>
      <point x="133" y="740" type="line"/>
      <point x="134" y="740" type="line"/>
      <point x="172" y="818"/>
      <point x="328" y="934"/>
      <point x="421" y="934" type="qcurve" smooth="yes"/>
      <point x="456" y="934"/>
      <point x="513" y="922"/>
      <point x="524" y="917" type="qcurve"/>
      <point x="524" y="907" type="line"/>
      <point x="509" y="912"/>
      <point x="453" y="924"/>
      <point x="421" y="924" type="qcurve" smooth="yes"/>
      <point x="333" y="924"/>
      <point x="176" y="812"/>
      <point x="134" y="722" type="qcurve"/>
      <point x="134" y="0" type="line"/>
    </contour>
  </outline>
</glyph>
<glyph name="u" format="2">
  <advance width="908"/>
  <unicode hex="0075"/>
  <anchor x="454.0" y="0" name="bottom"/>
  <anchor x="786" y="0" name="ogonek"/>
  <anchor x="454.0" y="914" name="top"/>
  <anchor x="794" y="914" name="topright"/>
  <outline>
    <contour>
      <point x="123" y="254" type="qcurve" smooth="yes"/>
      <point x="123" y="914" type="line"/>
      <point x="133" y="914" type="line"/>
      <point x="133" y="258" type="line" smooth="yes"/>
      <point x="133" y="118"/>
      <point x="280" y="-10"/>
      <point x="419" y="-10" type="qcurve" smooth="yes"/>
      <point x="548" y="-10"/>
      <point x="739" y="111"/>
      <point x="785" y="190" type="qcurve"/>
      <point x="785" y="914" type="line"/>
      <point x="795" y="914" type="line"/>
      <point x="795" y="0" type="line"/>
      <point x="785" y="0" type="line"/>
      <point x="785" y="179" type="line"/>
      <point x="785" y="179" type="line"/>
      <point x="745" y="105"/>
      <point x="552" y="-20"/>
      <point x="419" y="-20" type="qcurve"/>
      <point x="277" y="-20"/>
      <point x="123" y="110"/>
    </contour>
  </outline>
</glyph>
<glyph name="w" format="2">
  <advance width="1226"/>
  <unicode hex="0077"/>
  <outline>
    <contour>
      <point x="24" y="914" type="line"/>
      <point x="35" y="914" type="line"/>
      <point x="303" y="36" type="line" smooth="yes"/>
      <point x="307" y="24"/>
      <point x="310" y="14"/>
      <point x="311" y="9" type="qcurve"/>
      <point x="314" y="9" type="line"/>
      <point x="315" y="14"/>
      <point x="318" y="23"/>
      <point x="322" y="36" type="qcurve" smooth="yes"/>
      <point x="605" y="914" type="line"/>
      <point x="620" y="914" type="line"/>
      <point x="906" y="34" type="line" smooth="yes"/>
      <point x="909" y="25"/>
      <point x="913" y="13"/>
      <point x="913" y="11" type="qcurve"/>
      <point x="917" y="11" type="line"/>
      <point x="917" y="13"/>
      <point x="920" y="25"/>
      <point x="923" y="34" type="qcurve" smooth="yes"/>
      <point x="1190" y="914" type="line"/>
      <point x="1201" y="914" type="line"/>
      <point x="923" y="0" type="line"/>
      <point x="906" y="0" type="line"/>
      <point x="624" y="871" type="line" smooth="yes"/>
      <point x="623" y="874"/>
      <point x="615" y="901"/>
      <point x="614" y="904" type="qcurve"/>
      <point x="611" y="904" type="line"/>
      <point x="610" y="901"/>
      <point x="601" y="874"/>
      <point x="600" y="871" type="qcurve" smooth="yes"/>
      <point x="321" y="0" type="line"/>
      <point x="304" y="0" type="line"/>
    </contour>
  </outline>
</glyph>
<glyph name="x" format="2">
  <advance width="700"/>
  <unicode hex="0078"/>
  <outline>
    <contour>
      <point x="27" y="0" type="line"/>
      <point x="351" y="474" type="line"/>
      <point x="351" y="474" type="line"/>
      <point x="651" y="914" type="line"/>
      <point x="662" y="914" type="line"/>
      <point x="354" y="463" type="line"/>
      <point x="354" y="463" type="line"/>
      <point x="38" y="0" type="line"/>
    </contour>
    <contour>
      <point x="43" y="914" type="line"/>
      <point x="55" y="914" type="line"/>
      <point x="353" y="473" type="line"/>
      <point x="353" y="473" type="line"/>
      <point x="674" y="0" type="line"/>
      <point x="662" y="0" type="line"/>
      <point x="349" y="464" type="line"/>
      <point x="349" y="464" type="line"/>
    </contour>
  </outline>
</glyph>
<glyph name="y" format="2">
  <advance width="772"/>
  <unicode hex="0079"/>
  <anchor x="535.0" y="0" name="bottom"/>
  <anchor x="387.0" y="914" name="top"/>
  <outline>
    <contour>
      <point x="28" y="-423" type="qcurve"/>
      <point x="28" y="-412" type="line"/>
      <point x="46" y="-419"/>
      <point x="81.0" y="-425.0"/>
      <point x="98.0" y="-425.0" type="qcurve" smooth="yes"/>
      <point x="171" y="-425"/>
      <point x="280" y="-255"/>
      <point x="380" y="-5" type="qcurve" smooth="yes"/>
      <point x="382" y="0" type="line"/>
      <point x="20" y="914" type="line"/>
      <point x="31" y="914" type="line"/>
      <point x="351" y="103" type="line" smooth="yes"/>
      <point x="358" y="85"/>
      <point x="378" y="34"/>
      <point x="386" y="12" type="qcurve"/>
      <point x="387" y="12" type="line"/>
      <point x="395" y="34"/>
      <point x="415" y="85"/>
      <point x="422" y="103" type="qcurve" smooth="yes"/>
      <point x="740" y="914" type="line"/>
      <point x="750" y="914" type="line"/>
      <point x="389" y="-5" type="line" smooth="yes"/>
      <point x="288" y="-262"/>
      <point x="174" y="-435"/>
      <point x="99.0" y="-435.0" type="qcurve" smooth="yes"/>
      <point x="80.0" y="-435.0"/>
      <point x="44" y="-429"/>
    </contour>
  </outline>
</glyph>
<glyph name="exclamdown" format="2">
	<unicode hex="00A1"/>
	<advance width="468"/>
	<outline>
		<contour>
			<point x="260" y="1134" type="qcurve" smooth="yes"/>
			<point x="260" y="1123"/>
			<point x="246" y="1109"/>
			<point x="234" y="1109" type="qcurve" smooth="yes"/>
			<point x="221" y="1109"/>
			<point x="208" y="1123"/>
			<point x="208" y="1134" type="qcurve" smooth="yes"/>
			<point x="208" y="1146"/>
			<point x="222" y="1160"/>
			<point x="235" y="1160" type="qcurve" smooth="yes"/>
			<point x="248" y="1160"/>
			<point x="260" y="1146"/>
		</contour>
		<contour>
			<point x="239" y="756" type="line"/>
			<point x="244" y="-306" type="line"/>
			<point x="224" y="-306" type="line"/>
			<point x="229" y="756" type="line"/>
		</contour>
	</outline>
</glyph>
<glyph name="cent" format="2">
  <advance width="834"/>
  <unicode hex="00A2"/>
  <outline>
    <contour>
      <point x="447.0" y="140" type="qcurve" smooth="yes"/>
      <point x="612.0" y="140"/>
      <point x="789.0" y="348"/>
      <point x="789.0" y="541" type="qcurve"/>
      <point x="799.0" y="541" type="line"/>
      <point x="799.0" y="343"/>
      <point x="617.0" y="130.0"/>
      <point x="447.0" y="130.0" type="qcurve" smooth="yes"/>
      <point x="262.0" y="130.0"/>
      <point x="63.0" y="411"/>
      <point x="63.0" y="673" type="qcurve" smooth="yes"/>
      <point x="63.0" y="710" type="line" smooth="yes"/>
      <point x="63.0" y="971"/>
      <point x="262.0" y="1252"/>
      <point x="447.0" y="1252" type="qcurve" smooth="yes"/>
      <point x="614.0" y="1252"/>
      <point x="793.0" y="1050"/>
      <point x="793.0" y="863" type="qcurve"/>
      <point x="783.0" y="863" type="line"/>
      <point x="783.0" y="1046"/>
      <point x="610.0" y="1242"/>
      <point x="449.0" y="1242" type="qcurve" smooth="yes"/>
      <point x="268.0" y="1242"/>
      <point x="73.0" y="966"/>
      <point x="73.0" y="710" type="qcurve" smooth="yes"/>
      <point x="73.0" y="673" type="line" smooth="yes"/>
      <point x="73.0" y="416"/>
      <point x="267.0" y="140"/>
    </contour>
    <contour>
      <point x="442" y="0" type="line"/>
      <point x="442" y="187" type="line"/>
      <point x="442" y="201" type="line"/>
      <point x="442" y="708" type="line"/>
      <point x="452" y="708" type="line"/>
      <point x="452" y="200" type="line"/>
      <point x="452" y="190" type="line"/>
      <point x="452" y="0" type="line"/>
    </contour>
    <contour>
      <point x="442" y="708" type="line"/>
      <point x="442" y="1182" type="line"/>
      <point x="442" y="1192" type="line"/>
      <point x="442" y="1402" type="line"/>
      <point x="452" y="1402" type="line"/>
      <point x="452" y="1192" type="line"/>
      <point x="452" y="1179" type="line"/>
      <point x="452" y="708" type="line"/>
    </contour>
  </outline>
</glyph>
<glyph name="section" format="2">
  <advance width="1242"/>
  <unicode hex="00A7"/>
  <guideline x="0.0" y="1658.0" angle="0.0" identifier="QzZ5gIiCyn"/>
  <guideline x="0.0" y="578.0" angle="0.0" identifier="9Hxjf2sdFw"/>
  <outline>
    <contour>
      <point x="699" y="172" type="qcurve"/>
      <point x="699" y="182" type="line"/>
      <point x="853" y="183"/>
      <point x="1052" y="347"/>
      <point x="1052" y="473" type="qcurve" smooth="yes"/>
      <point x="1052" y="590"/>
      <point x="861" y="758"/>
      <point x="650" y="828" type="qcurve" smooth="yes"/>
      <point x="426" y="902"/>
      <point x="259.0" y="1049.0"/>
      <point x="259.0" y="1172.0" type="qcurve" smooth="yes"/>
      <point x="259.0" y="1311.0"/>
      <point x="460" y="1491"/>
      <point x="615" y="1491" type="qcurve" smooth="yes"/>
      <point x="773" y="1491"/>
      <point x="975" y="1288"/>
      <point x="975" y="1130" type="qcurve"/>
      <point x="965" y="1130" type="line"/>
      <point x="965" y="1283"/>
      <point x="768" y="1481"/>
      <point x="615" y="1481" type="qcurve" smooth="yes"/>
      <point x="463" y="1481"/>
      <point x="269.0" y="1307.0"/>
      <point x="269.0" y="1173.0" type="qcurve" smooth="yes"/>
      <point x="269.0" y="1053.0"/>
      <point x="433" y="910"/>
      <point x="653" y="838" type="qcurve" smooth="yes"/>
      <point x="869" y="767"/>
      <point x="1062" y="596"/>
      <point x="1062" y="476" type="qcurve" smooth="yes"/>
      <point x="1062" y="344"/>
      <point x="857" y="173"/>
    </contour>
    <contour>
      <point x="503" y="893" type="qcurve"/>
      <point x="503" y="884" type="line"/>
      <point x="371" y="884"/>
      <point x="197" y="714"/>
      <point x="197.0" y="581" type="qcurve" smooth="yes"/>
      <point x="197.0" y="464"/>
      <point x="374" y="299"/>
      <point x="572" y="231" type="qcurve" smooth="yes"/>
      <point x="803" y="152"/>
      <point x="975.0" y="-9.0"/>
      <point x="975.0" y="-145.0" type="qcurve" smooth="yes"/>
      <point x="975.0" y="-304.0"/>
      <point x="756" y="-509"/>
      <point x="587" y="-509" type="qcurve" smooth="yes"/>
      <point x="409" y="-509"/>
      <point x="180" y="-281"/>
      <point x="180" y="-105" type="qcurve"/>
      <point x="191" y="-103" type="line"/>
      <point x="191" y="-276"/>
      <point x="414" y="-499"/>
      <point x="587" y="-499" type="qcurve" smooth="yes"/>
      <point x="752" y="-499"/>
      <point x="964.0" y="-300"/>
      <point x="964.0" y="-146" type="qcurve" smooth="yes"/>
      <point x="964.0" y="-13"/>
      <point x="795" y="144"/>
      <point x="568" y="222" type="qcurve" smooth="yes"/>
      <point x="367" y="290"/>
      <point x="187" y="459"/>
      <point x="187" y="580" type="qcurve" smooth="yes"/>
      <point x="187" y="717"/>
      <point x="367" y="893"/>
    </contour>
  </outline>
</glyph>
<glyph name="dieresis" format="2">
	<unicode hex="00A8"/>
	<advance width="1024"/>
	<outline>
		<contour>
			<point x="308" y="1047" type="qcurve" smooth="yes"/>
			<point x="308" y="1055"/>
			<point x="319" y="1066"/>
			<point x="329" y="1066" type="qcurve" smooth="yes"/>
			<point x="339" y="1066"/>
			<point x="349" y="1055"/>
			<point x="349" y="1047" type="qcurve" smooth="yes"/>
			<point x="349" y="1038"/>
			<point x="338" y="1027"/>
			<point x="328" y="1027" type="qcurve" smooth="yes"/>
			<point x="318" y="1027"/>
			<point x="308" y="1038"/>
		</contour>
		<contour>
			<point x="674" y="1047" type="qcurve" smooth="yes"/>
			<point x="674" y="1055"/>
			<point x="685" y="1066"/>
			<point x="695" y="1066" type="qcurve" smooth="yes"/>
			<point x="705" y="1066"/>
			<point x="715" y="1055"/>
			<point x="715" y="1047" type="qcurve" smooth="yes"/>
			<point x="715" y="1038"/>
			<point x="704" y="1027"/>
			<point x="694" y="1027" type="qcurve" smooth="yes"/>
			<point x="684" y="1027"/>
			<point x="674" y="1038"/>
		</contour>
	</outline>
</glyph>
<glyph name="copyright" format="2">
  <advance width="1654"/>
  <unicode hex="00A9"/>
  <guideline x="0" y="901" angle="0" identifier="0Pjz0qKr8z"/>
  <guideline x="0" y="555" angle="0" identifier="sJo8BlDiJ7"/>
  <outline>
    <contour>
      <point x="1175" y="543" type="qcurve"/>
      <point x="1184" y="543" type="line"/>
      <point x="1184" y="396"/>
      <point x="1001" y="205"/>
      <point x="830" y="205" type="qcurve" smooth="yes"/>
      <point x="647" y="205"/>
      <point x="439" y="455"/>
      <point x="439" y="673" type="qcurve" smooth="yes"/>
      <point x="439" y="705" type="line" smooth="yes"/>
      <point x="439" y="924"/>
      <point x="651" y="1170"/>
      <point x="830" y="1170" type="qcurve" smooth="yes"/>
      <point x="1005" y="1170"/>
      <point x="1182" y="989"/>
      <point x="1182" y="833" type="qcurve"/>
      <point x="1173" y="833" type="line"/>
      <point x="1173" y="981"/>
      <point x="1002" y="1160"/>
      <point x="832" y="1160" type="qcurve" smooth="yes"/>
      <point x="654" y="1160"/>
      <point x="449" y="920"/>
      <point x="449" y="705" type="qcurve" smooth="yes"/>
      <point x="449" y="673" type="line" smooth="yes"/>
      <point x="449" y="462"/>
      <point x="655" y="215"/>
      <point x="830" y="215" type="qcurve" smooth="yes"/>
      <point x="993" y="215"/>
      <point x="1175" y="398"/>
    </contour>
    <contour>
      <point x="68" y="687" type="qcurve" smooth="yes"/>
      <point x="68" y="343"/>
      <point x="505" y="-117"/>
      <point x="828" y="-117" type="qcurve" smooth="yes"/>
      <point x="1150" y="-117"/>
      <point x="1586" y="343"/>
      <point x="1586" y="687" type="qcurve" smooth="yes"/>
      <point x="1586" y="1031"/>
      <point x="1149" y="1489"/>
      <point x="828" y="1489" type="qcurve" smooth="yes"/>
      <point x="505" y="1489"/>
      <point x="68" y="1031"/>
    </contour>
    <contour>
      <point x="58" y="687" type="qcurve" smooth="yes"/>
      <point x="58" y="1039"/>
      <point x="501" y="1499"/>
      <point x="827" y="1499" type="qcurve" smooth="yes"/>
      <point x="1152" y="1499"/>
      <point x="1596" y="1039"/>
      <point x="1596" y="687" type="qcurve" smooth="yes"/>
      <point x="1596" y="337"/>
      <point x="1152" y="-127"/>
      <point x="827" y="-127" type="qcurve" smooth="yes"/>
      <point x="501" y="-127"/>
      <point x="58" y="337"/>
    </contour>
  </outline>
</glyph>
<glyph name="guillemotleft" format="2">
  <advance width="677"/>
  <unicode hex="00AB"/>
  <guideline x="0.0" y="901.0" angle="0.0" identifier="ZftBQarVKw"/>
  <guideline x="0.0" y="555.0" angle="0.0" identifier="MVJpdoVRVd"/>
  <outline>
    <contour>
      <point x="68" y="528" type="line"/>
      <point x="68" y="541" type="line"/>
      <point x="336" y="915" type="line"/>
      <point x="346" y="915" type="line"/>
      <point x="76" y="534" type="line"/>
      <point x="346" y="153" type="line"/>
      <point x="336" y="153" type="line"/>
    </contour>
    <contour>
      <point x="349" y="528" type="line"/>
      <point x="349" y="541" type="line"/>
      <point x="618" y="915" type="line"/>
      <point x="627" y="915" type="line"/>
      <point x="357" y="534" type="line"/>
      <point x="627" y="153" type="line"/>
      <point x="618" y="153" type="line"/>
    </contour>
  </outline>
</glyph>
<glyph name="registered" format="2">
  <advance width="1654"/>
  <unicode hex="00AE"/>
  <outline>
    <contour>
      <point x="58" y="687" type="qcurve" smooth="yes"/>
      <point x="58" y="1039"/>
      <point x="501" y="1499"/>
      <point x="827" y="1499" type="qcurve" smooth="yes"/>
      <point x="1152" y="1499"/>
      <point x="1596" y="1039"/>
      <point x="1596" y="687" type="qcurve" smooth="yes"/>
      <point x="1596" y="337"/>
      <point x="1152" y="-127"/>
      <point x="827" y="-127" type="qcurve" smooth="yes"/>
      <point x="501" y="-127"/>
      <point x="58" y="337"/>
    </contour>
    <contour>
      <point x="68" y="687" type="qcurve" smooth="yes"/>
      <point x="68" y="343"/>
      <point x="505" y="-117"/>
      <point x="828" y="-117" type="qcurve" smooth="yes"/>
      <point x="1150" y="-117"/>
      <point x="1586" y="343"/>
      <point x="1586" y="687" type="qcurve" smooth="yes"/>
      <point x="1586" y="1031"/>
      <point x="1149" y="1489"/>
      <point x="828" y="1489" type="qcurve" smooth="yes"/>
      <point x="505" y="1489"/>
      <point x="68" y="1031"/>
    </contour>
    <contour>
      <point x="934" y="619" type="line"/>
      <point x="539" y="619" type="line"/>
      <point x="539" y="225" type="line"/>
      <point x="529" y="225" type="line"/>
      <point x="529" y="1158" type="line"/>
      <point x="821" y="1158" type="line" smooth="yes"/>
      <point x="988" y="1158"/>
      <point x="1167" y="1018"/>
      <point x="1167" y="887" type="qcurve"/>
      <point x="1167" y="780"/>
      <point x="1043" y="635"/>
      <point x="941" y="622" type="qcurve"/>
      <point x="961" y="591"/>
      <point x="986" y="551"/>
      <point x="1003" y="523" type="qcurve" smooth="yes"/>
      <point x="1182" y="232" type="line"/>
      <point x="1182" y="227" type="line"/>
      <point x="1174" y="227" type="line"/>
    </contour>
    <contour>
      <point x="822.0" y="1148" type="qcurve" smooth="yes"/>
      <point x="539.0" y="1148" type="line"/>
      <point x="539.0" y="629" type="line"/>
      <point x="906" y="629.0" type="line" smooth="yes"/>
      <point x="1016" y="629.0"/>
      <point x="1157.0" y="774"/>
      <point x="1157.0" y="886" type="qcurve" smooth="yes"/>
      <point x="1157.0" y="1012"/>
      <point x="983.0" y="1148"/>
    </contour>
  </outline>
</glyph>
<glyph name="plusminus" format="2">
	<unicode hex="00B1"/>
	<advance width="1082"/>
	<outline>
		<contour>
			<point x="110" y="670" type="line"/>
			<point x="110" y="678" type="line"/>
			<point x="972" y="678" type="line"/>
			<point x="972" y="670" type="line"/>
		</contour>
		<contour>
			<point x="536" y="208" type="line"/>
			<point x="536" y="1140" type="line"/>
			<point x="546" y="1140" type="line"/>
			<point x="546" y="208" type="line"/>
		</contour>
		<contour>
			<point x="110" y="1" type="line"/>
			<point x="110" y="9" type="line"/>
			<point x="972" y="9" type="line"/>
			<point x="972" y="1" type="line"/>
		</contour>
	</outline>
</glyph>
<glyph name="twosuperior" format="2">
  <advance width="593"/>
  <unicode hex="00B2"/>
  <outline>
    <contour>
      <point x="81" y="684" type="line"/>
      <point x="81" y="687" type="line"/>
      <point x="411" y="1053" type="line" smooth="yes"/>
      <point x="466" y="1114"/>
      <point x="517" y="1200"/>
      <point x="517.0" y="1255" type="qcurve" smooth="yes"/>
      <point x="517.0" y="1346"/>
      <point x="406" y="1464.0"/>
      <point x="305" y="1464.0" type="qcurve" smooth="yes"/>
      <point x="202" y="1464"/>
      <point x="76" y="1320"/>
      <point x="77" y="1208" type="qcurve"/>
      <point x="67" y="1208" type="line"/>
      <point x="67" y="1330"/>
      <point x="202" y="1474"/>
      <point x="306" y="1474" type="qcurve" smooth="yes"/>
      <point x="413" y="1474"/>
      <point x="527" y="1346"/>
      <point x="527" y="1257" type="qcurve" smooth="yes"/>
      <point x="527.0" y="1198.0"/>
      <point x="477" y="1111"/>
      <point x="418" y="1046" type="qcurve" smooth="yes"/>
      <point x="100" y="694" type="line"/>
      <point x="545" y="694" type="line"/>
      <point x="545" y="684" type="line"/>
    </contour>
  </outline>
</glyph>
<glyph name="threesuperior" format="2">
  <advance width="605"/>
  <unicode hex="00B3"/>
  <outline>
    <contour>
      <point x="55" y="900" type="qcurve"/>
      <point x="65" y="900" type="line"/>
      <point x="65" y="788"/>
      <point x="199" y="668"/>
      <point x="302" y="668" type="qcurve" smooth="yes"/>
      <point x="404" y="668"/>
      <point x="536.0" y="787"/>
      <point x="536.0" y="898" type="qcurve" smooth="yes"/>
      <point x="536.0" y="979"/>
      <point x="425" y="1084"/>
      <point x="323" y="1085" type="qcurve"/>
      <point x="215" y="1085" type="line"/>
      <point x="215" y="1095" type="line"/>
      <point x="323" y="1095" type="line"/>
      <point x="417" y="1095"/>
      <point x="517" y="1190"/>
      <point x="517.0" y="1263" type="qcurve" smooth="yes"/>
      <point x="517.0" y="1357"/>
      <point x="395" y="1467"/>
      <point x="301" y="1467" type="qcurve" smooth="yes"/>
      <point x="205" y="1467"/>
      <point x="80" y="1346"/>
      <point x="80" y="1246" type="qcurve"/>
      <point x="70" y="1246" type="line"/>
      <point x="70" y="1347"/>
      <point x="197" y="1477"/>
      <point x="300" y="1477" type="qcurve" smooth="yes"/>
      <point x="402" y="1477"/>
      <point x="527" y="1361"/>
      <point x="527" y="1265" type="qcurve" smooth="yes"/>
      <point x="527.0" y="1193"/>
      <point x="440" y="1099"/>
      <point x="367" y="1090" type="qcurve"/>
      <point x="456" y="1078"/>
      <point x="546.0" y="972.0"/>
      <point x="546" y="897" type="qcurve" smooth="yes"/>
      <point x="546" y="778"/>
      <point x="403" y="658"/>
      <point x="307" y="658" type="qcurve" smooth="yes"/>
      <point x="201" y="658"/>
      <point x="55" y="778"/>
    </contour>
  </outline>
</glyph>
<glyph name="acute" format="2">
	<unicode hex="00B4"/>
	<advance width="1024"/>
	<outline>
		<contour>
			<point x="401" y="982" type="line"/>
			<point x="656" y="1263" type="line"/>
			<point x="663" y="1258" type="line"/>
			<point x="406" y="978" type="line"/>
		</contour>
	</outline>
</glyph>
<glyph name="cedilla" format="2">
  <advance width="1024"/>
  <unicode hex="00B8"/>
  <outline>
    <contour>
      <point x="484.0" y="-10.0" type="line"/>
      <point x="492.0" y="-10.0" type="line"/>
      <point x="459.0" y="-150.0" type="line"/>
      <point x="563.0" y="-158.0"/>
      <point x="648.0" y="-231.0"/>
      <point x="648.0" y="-278.0" type="qcurve" smooth="yes"/>
      <point x="648.0" y="-359.0"/>
      <point x="491.0" y="-462.0"/>
      <point x="347.0" y="-462.0" type="qcurve"/>
      <point x="346.0" y="-454.0" type="line"/>
      <point x="484.0" y="-454.0"/>
      <point x="640.0" y="-356.0"/>
      <point x="640.0" y="-280.0" type="qcurve" smooth="yes"/>
      <point x="640.0" y="-234.0"/>
      <point x="560.0" y="-166.0"/>
      <point x="450.0" y="-157.0" type="qcurve"/>
    </contour>
  </outline>
</glyph>
<glyph name="onesuperior" format="2">
  <advance width="488"/>
  <unicode hex="00B9"/>
  <outline>
    <contour>
      <point x="83" y="1379" type="line"/>
      <point x="83" y="1390" type="line"/>
      <point x="277" y="1476" type="line"/>
      <point x="291" y="1476" type="line"/>
      <point x="291" y="697" type="line"/>
      <point x="279" y="697" type="line"/>
      <point x="279" y="1465" type="line"/>
    </contour>
  </outline>
</glyph>
<glyph name="guillemotright" format="2">
  <advance width="677"/>
  <unicode hex="00BB"/>
  <guideline x="0" y="98" angle="0" identifier="MTEldNnfdj"/>
  <guideline x="0" y="443" angle="0" identifier="G9bQni2n1K"/>
  <outline>
    <contour>
      <point x="50" y="153" type="line"/>
      <point x="320" y="534" type="line"/>
      <point x="50" y="915" type="line"/>
      <point x="59" y="915" type="line"/>
      <point x="328" y="540" type="line"/>
      <point x="328" y="527" type="line"/>
      <point x="59" y="153" type="line"/>
    </contour>
    <contour>
      <point x="331" y="153" type="line"/>
      <point x="601" y="534" type="line"/>
      <point x="331" y="915" type="line"/>
      <point x="341" y="915" type="line"/>
      <point x="609" y="540" type="line"/>
      <point x="609" y="527" type="line"/>
      <point x="341" y="153" type="line"/>
    </contour>
  </outline>
</glyph>
<glyph name="Thorn" format="2">
  <advance width="941"/>
  <unicode hex="00DE"/>
  <guideline x="0" y="901" angle="0" identifier="i9jYwjBDP4"/>
  <guideline x="0" y="555" angle="0" identifier="T8KKW8oxop"/>
  <outline>
    <contour>
      <point x="150" y="1456" type="line"/>
      <point x="160" y="1456" type="line"/>
      <point x="160" y="1163" type="line"/>
      <point x="497" y="1163" type="line" smooth="yes"/>
      <point x="697" y="1163"/>
      <point x="892" y="927"/>
      <point x="892" y="741" type="qcurve" smooth="yes"/>
      <point x="892" y="553"/>
      <point x="697" y="313"/>
      <point x="497" y="314" type="qcurve" smooth="yes"/>
      <point x="160" y="314" type="line"/>
      <point x="160" y="0" type="line"/>
      <point x="150" y="0" type="line"/>
    </contour>
    <contour>
      <point x="487" y="1153" type="qcurve" smooth="yes"/>
      <point x="160" y="1153" type="line"/>
      <point x="160" y="324" type="line"/>
      <point x="485" y="324" type="line" smooth="yes"/>
      <point x="692" y="324"/>
      <point x="882" y="559"/>
      <point x="882" y="740" type="qcurve" smooth="yes"/>
      <point x="882" y="920"/>
      <point x="693" y="1153"/>
    </contour>
  </outline>
</glyph>
<glyph name="germandbls" format="2">
  <advance width="1019"/>
  <unicode hex="00DF"/>
  <outline>
    <contour>
      <point x="133" y="1092" type="qcurve" name="hr00"/>
      <point x="133" y="0" type="line"/>
      <point x="123" y="0" type="line"/>
      <point x="123" y="1092" type="line" smooth="yes"/>
      <point x="123" y="1305"/>
      <point x="288" y="1534"/>
      <point x="441" y="1534" type="qcurve" smooth="yes"/>
      <point x="564" y="1534"/>
      <point x="724" y="1377"/>
      <point x="724" y="1256" type="qcurve" smooth="yes"/>
      <point x="724" y="1187"/>
      <point x="672" y="1045"/>
      <point x="616" y="971" type="qcurve" smooth="yes"/>
      <point x="582" y="926"/>
      <point x="543" y="855"/>
      <point x="543" y="821" type="qcurve" smooth="yes"/>
      <point x="543" y="772"/>
      <point x="640" y="658"/>
      <point x="753" y="571" type="qcurve" smooth="yes"/>
      <point x="860" y="488"/>
      <point x="939" y="364"/>
      <point x="939" y="282" type="qcurve" smooth="yes"/>
      <point x="939" y="136"/>
      <point x="744" y="-20"/>
      <point x="599" y="-20" type="qcurve" smooth="yes"/>
      <point x="444" y="-20"/>
      <point x="268.0" y="134"/>
      <point x="268" y="278" type="qcurve" smooth="yes"/>
      <point x="268" y="304" type="line"/>
      <point x="278" y="304" type="line"/>
      <point x="278" y="282" type="line" smooth="yes"/>
      <point x="278" y="141"/>
      <point x="450" y="-10"/>
      <point x="601" y="-10" type="qcurve" smooth="yes"/>
      <point x="740" y="-10"/>
      <point x="929" y="143"/>
      <point x="929" y="285" type="qcurve" smooth="yes"/>
      <point x="929" y="364"/>
      <point x="851" y="483"/>
      <point x="747" y="563" type="qcurve" smooth="yes"/>
      <point x="633" y="651"/>
      <point x="533" y="769"/>
      <point x="533" y="821" type="qcurve" smooth="yes"/>
      <point x="533" y="856"/>
      <point x="573" y="929"/>
      <point x="608" y="976" type="qcurve" smooth="yes"/>
      <point x="661" y="1047"/>
      <point x="714" y="1190"/>
      <point x="714" y="1254" type="qcurve" smooth="yes"/>
      <point x="714" y="1372"/>
      <point x="558" y="1524"/>
      <point x="437" y="1524" type="qcurve" smooth="yes"/>
      <point x="291" y="1524"/>
      <point x="133" y="1300"/>
    </contour>
  </outline>
</glyph>
<glyph name="ae" format="2">
  <advance width="1495"/>
  <unicode hex="00E6"/>
  <anchor x="747.5" y="914" name="top"/>
  <outline>
    <contour>
      <point x="56" y="239" type="qcurve" smooth="yes"/>
      <point x="56" y="117"/>
      <point x="215" y="-3"/>
      <point x="342" y="-3" type="qcurve" smooth="yes"/>
      <point x="506" y="-3"/>
      <point x="715" y="193"/>
      <point x="715" y="345" type="qcurve"/>
      <point x="715" y="511" type="line"/>
      <point x="398" y="511" type="line" smooth="yes"/>
      <point x="230" y="511"/>
      <point x="56" y="363"/>
    </contour>
    <contour>
      <point x="46" y="239" type="qcurve" smooth="yes"/>
      <point x="46" y="368"/>
      <point x="228" y="521"/>
      <point x="410" y="521" type="qcurve" smooth="yes"/>
      <point x="715" y="521" type="line"/>
      <point x="715" y="574" type="line" smooth="yes"/>
      <point x="715" y="754"/>
      <point x="569" y="924"/>
      <point x="416" y="924" type="qcurve" smooth="yes"/>
      <point x="261" y="924"/>
      <point x="92" y="790"/>
      <point x="94" y="695" type="qcurve" smooth="yes"/>
      <point x="94" y="649" type="line"/>
      <point x="84" y="649" type="line"/>
      <point x="84" y="706" type="line" smooth="yes"/>
      <point x="84" y="799"/>
      <point x="258" y="934"/>
      <point x="415" y="934" type="qcurve" smooth="yes"/>
      <point x="572" y="934"/>
      <point x="723" y="762"/>
      <point x="723" y="567" type="qcurve"/>
      <point x="746" y="739"/>
      <point x="945" y="934"/>
      <point x="1106" y="934" type="qcurve" smooth="yes"/>
      <point x="1284" y="934"/>
      <point x="1455" y="719"/>
      <point x="1455" y="569" type="qcurve" smooth="yes"/>
      <point x="1455" y="511" type="line"/>
      <point x="721" y="511" type="line"/>
      <point x="721" y="521" type="line"/>
      <point x="1445" y="521" type="line"/>
      <point x="1445" y="578" type="line" smooth="yes"/>
      <point x="1445" y="711"/>
      <point x="1279" y="924"/>
      <point x="1106" y="924" type="qcurve" smooth="yes"/>
      <point x="927" y="924"/>
      <point x="725" y="676"/>
      <point x="725" y="474" type="qcurve" smooth="yes"/>
      <point x="725" y="426" type="line" smooth="yes"/>
      <point x="725" y="230"/>
      <point x="932" y="-10"/>
      <point x="1116" y="-10" type="qcurve" smooth="yes"/>
      <point x="1237" y="-10"/>
      <point x="1399" y="86"/>
      <point x="1439" y="149" type="qcurve"/>
      <point x="1447" y="144" type="line"/>
      <point x="1410" y="82"/>
      <point x="1242" y="-20"/>
      <point x="1114" y="-20" type="qcurve" smooth="yes"/>
      <point x="952" y="-20"/>
      <point x="749" y="167"/>
      <point x="723" y="333" type="qcurve"/>
      <point x="719" y="182"/>
      <point x="507" y="-13"/>
      <point x="342" y="-13" type="qcurve" smooth="yes"/>
      <point x="209" y="-13"/>
      <point x="46" y="113"/>
    </contour>
  </outline>
</glyph>
<glyph name="eth" format="2">
  <advance width="929"/>
  <unicode hex="00F0"/>
  <outline>
    <contour>
      <point x="213" y="1455.0" type="qcurve"/>
      <point x="216" y="1464.0" type="line"/>
      <point x="503" y="1395.0"/>
      <point x="870.0" y="831"/>
      <point x="870.0" y="526" type="qcurve"/>
      <point x="870.0" y="444" type="line"/>
      <point x="870.0" y="242"/>
      <point x="644.0" y="-20"/>
      <point x="467.0" y="-20" type="qcurve" smooth="yes"/>
      <point x="288.0" y="-20"/>
      <point x="56.0" y="210"/>
      <point x="56.0" y="388" type="qcurve" smooth="yes"/>
      <point x="56.0" y="574"/>
      <point x="281" y="815"/>
      <point x="455.0" y="815" type="qcurve" smooth="yes"/>
      <point x="617.0" y="815"/>
      <point x="870.0" y="635"/>
      <point x="870.0" y="520" type="qcurve"/>
      <point x="861.0" y="521" type="line"/>
      <point x="861.0" y="632"/>
      <point x="614" y="805"/>
      <point x="456" y="805" type="qcurve" smooth="yes"/>
      <point x="288" y="805"/>
      <point x="66.0" y="570"/>
      <point x="66.0" y="388" type="qcurve" smooth="yes"/>
      <point x="66" y="211"/>
      <point x="298" y="-10"/>
      <point x="471.0" y="-10" type="qcurve" smooth="yes"/>
      <point x="634" y="-10"/>
      <point x="860.0" y="244.0"/>
      <point x="860.0" y="444" type="qcurve" smooth="yes"/>
      <point x="860.0" y="528" type="line" smooth="yes"/>
      <point x="860.0" y="830.0"/>
      <point x="495" y="1385"/>
    </contour>
    <contour>
      <point x="754" y="1380.0" type="line"/>
      <point x="289" y="1042.0" type="line"/>
      <point x="284" y="1050.0" type="line"/>
      <point x="749" y="1388.0" type="line"/>
    </contour>
  </outline>
</glyph>
<glyph name="oe" format="2">
	<unicode hex="0153"/>
	<advance width="1638"/>
	<outline>
		<contour>
			<point x="70" y="474" type="qcurve" smooth="yes"/>
			<point x="70" y="437" type="line" smooth="yes"/>
			<point x="70" y="240"/>
			<point x="284" y="-10"/>
			<point x="464" y="-10" type="qcurve" smooth="yes"/>
			<point x="646" y="-10"/>
			<point x="858" y="239"/>
			<point x="858" y="438" type="qcurve" smooth="yes"/>
			<point x="858" y="474" type="line" smooth="yes"/>
			<point x="858" y="674"/>
			<point x="657" y="924"/>
			<point x="463" y="924" type="qcurve" smooth="yes"/>
			<point x="273" y="924"/>
			<point x="70" y="674"/>
		</contour>
		<contour>
			<point x="863" y="554" type="qcurve"/>
			<point x="884" y="731"/>
			<point x="1085" y="934"/>
			<point x="1249" y="934" type="qcurve" smooth="yes"/>
			<point x="1427" y="934"/>
			<point x="1598" y="719"/>
			<point x="1598" y="569" type="qcurve" smooth="yes"/>
			<point x="1598" y="540" type="line"/>
			<point x="869" y="540" type="line"/>
			<point x="869" y="550" type="line"/>
			<point x="1588" y="550" type="line"/>
			<point x="1588" y="578" type="line" smooth="yes"/>
			<point x="1588" y="711"/>
			<point x="1422" y="924"/>
			<point x="1249" y="924" type="qcurve" smooth="yes"/>
			<point x="1070" y="924"/>
			<point x="868" y="676"/>
			<point x="868" y="474" type="qcurve" smooth="yes"/>
			<point x="868" y="442" type="line" smooth="yes"/>
			<point x="868" y="240"/>
			<point x="1071" y="-10"/>
			<point x="1259" y="-10" type="qcurve" smooth="yes"/>
			<point x="1380" y="-10"/>
			<point x="1542" y="86"/>
			<point x="1582" y="149" type="qcurve"/>
			<point x="1590" y="144" type="line"/>
			<point x="1553" y="82"/>
			<point x="1385" y="-20"/>
			<point x="1257" y="-20" type="qcurve" smooth="yes"/>
			<point x="1088" y="-20"/>
			<point x="883" y="183"/>
			<point x="863" y="363" type="qcurve"/>
			<point x="841" y="181"/>
			<point x="629" y="-20"/>
			<point x="464" y="-20" type="qcurve" smooth="yes"/>
			<point x="280" y="-20"/>
			<point x="60" y="233"/>
			<point x="60" y="453" type="qcurve" smooth="yes"/>
			<point x="60" y="463" type="line" smooth="yes"/>
			<point x="60" y="684"/>
			<point x="271" y="934"/>
			<point x="463" y="934" type="qcurve" smooth="yes"/>
			<point x="638" y="934"/>
			<point x="843" y="733"/>
		</contour>
	</outline>
</glyph>
<glyph name="florin" format="2">
  <advance width="931"/>
  <unicode hex="0192"/>
  <outline>
    <contour>
      <point x="675" y="818" type="line"/>
      <point x="675" y="808" type="line"/>
      <point x="374" y="808" type="line"/>
      <point x="374" y="111" type="line" smooth="yes"/>
      <point x="374" y="-203"/>
      <point x="262" y="-437"/>
      <point x="113" y="-437" type="qcurve" smooth="yes"/>
      <point x="82" y="-437"/>
      <point x="29" y="-430"/>
      <point x="1" y="-420" type="qcurve"/>
      <point x="2" y="-410" type="line"/>
      <point x="29.0" y="-421"/>
      <point x="84" y="-427"/>
      <point x="113" y="-427" type="qcurve" smooth="yes"/>
      <point x="257" y="-427"/>
      <point x="364" y="-197"/>
      <point x="364" y="111" type="qcurve" smooth="yes"/>
      <point x="364" y="808" type="line"/>
      <point x="197" y="808" type="line"/>
      <point x="197" y="818" type="line"/>
      <point x="364" y="818" type="line"/>
      <point x="364" y="1122" type="line" smooth="yes"/>
      <point x="364" y="1297"/>
      <point x="518" y="1478"/>
      <point x="652" y="1478" type="qcurve" smooth="yes"/>
      <point x="705" y="1478"/>
      <point x="797" y="1451"/>
      <point x="847" y="1421" type="qcurve"/>
      <point x="842" y="1412" type="line"/>
      <point x="794" y="1441.0"/>
      <point x="702" y="1468"/>
      <point x="655" y="1468" type="qcurve" smooth="yes"/>
      <point x="524" y="1468"/>
      <point x="374.0" y="1290"/>
      <point x="374" y="1122" type="qcurve" smooth="yes"/>
      <point x="374" y="818" type="line"/>
    </contour>
  </outline>
</glyph>
<glyph name="doubleprimemod" format="2">
  <advance width="519"/>
  <unicode hex="02BA"/>
  <outline>
    <contour>
      <point x="168" y="1502" type="line"/>
      <point x="179" y="1502" type="line"/>
      <point x="128" y="1039" type="line"/>
      <point x="120" y="1040" type="line"/>
    </contour>
    <contour>
      <point x="388" y="1502" type="line"/>
      <point x="399" y="1502" type="line"/>
      <point x="348" y="1039" type="line"/>
      <point x="340" y="1040" type="line"/>
    </contour>
  </outline>
</glyph>
<glyph name="apostrophemod" format="2">
  <advance width="324"/>
  <unicode hex="02BC"/>
  <outline>
    <contour>
      <point x="135" y="1255" type="line"/>
      <point x="161" y="1277"/>
      <point x="192" y="1390"/>
      <point x="194" y="1473" type="qcurve"/>
      <point x="158" y="1473"/>
      <point x="132" y="1493"/>
      <point x="132" y="1509" type="qcurve" smooth="yes"/>
      <point x="132" y="1525"/>
      <point x="152" y="1546"/>
      <point x="167" y="1546" type="qcurve" smooth="yes"/>
      <point x="181" y="1546"/>
      <point x="204" y="1520"/>
      <point x="204" y="1498" type="qcurve" smooth="yes"/>
      <point x="204" y="1401"/>
      <point x="170" y="1271"/>
      <point x="139" y="1248" type="qcurve"/>
    </contour>
  </outline>
</glyph>
<glyph name="circumflex" format="2">
  <advance width="1024"/>
  <unicode hex="02C6"/>
  <outline>
    <contour>
      <point x="514" y="1252" type="line"/>
      <point x="729" y="979" type="line"/>
      <point x="720" y="979" type="line"/>
      <point x="508" y="1246" type="line"/>
      <point x="299" y="979" type="line"/>
      <point x="290" y="979" type="line"/>
      <point x="502" y="1252" type="line"/>
    </contour>
  </outline>
</glyph>
<glyph name="caron" format="2">
  <advance width="1024"/>
  <unicode hex="02C7"/>
  <outline>
    <contour>
      <point x="505" y="969" type="line"/>
      <point x="290" y="1242" type="line"/>
      <point x="299" y="1242" type="line"/>
      <point x="511" y="975" type="line"/>
      <point x="720" y="1242" type="line"/>
      <point x="729" y="1242" type="line"/>
      <point x="517" y="969" type="line"/>
    </contour>
  </outline>
</glyph>
<glyph name="breve" format="2">
  <advance width="1022"/>
  <unicode hex="02D8"/>
  <outline>
    <contour>
      <point x="771" y="1209.0" type="qcurve"/>
      <point x="778" y="1205.0" type="line"/>
      <point x="733" y="1078.0"/>
      <point x="607.0" y="964.0"/>
      <point x="512.0" y="964.0" type="qcurve" smooth="yes"/>
      <point x="417.0" y="964.0"/>
      <point x="291.0" y="1078.0"/>
      <point x="246.0" y="1205.0" type="qcurve"/>
      <point x="253.0" y="1209.0" type="line"/>
      <point x="299.0" y="1086.0"/>
      <point x="421.0" y="975.0"/>
      <point x="512.0" y="975.0" type="qcurve" smooth="yes"/>
      <point x="603.0" y="975.0"/>
      <point x="725" y="1086.0"/>
    </contour>
  </outline>
</glyph>
<glyph name="ring" format="2">
  <advance width="1024"/>
  <unicode hex="02DA"/>
  <outline>
    <contour>
      <point x="344" y="1135" type="qcurve"/>
      <point x="344" y="1209"/>
      <point x="439" y="1304"/>
      <point x="512" y="1304" type="qcurve" smooth="yes"/>
      <point x="585" y="1304"/>
      <point x="680" y="1209"/>
      <point x="680" y="1135" type="qcurve" smooth="yes"/>
      <point x="680" y="1063"/>
      <point x="585" y="970"/>
      <point x="512" y="970" type="qcurve" smooth="yes"/>
      <point x="439" y="970"/>
      <point x="344" y="1063"/>
    </contour>
    <contour>
      <point x="352" y="1135" type="qcurve"/>
      <point x="352" y="1066"/>
      <point x="442" y="978"/>
      <point x="512" y="978" type="qcurve" smooth="yes"/>
      <point x="582" y="978"/>
      <point x="672" y="1066"/>
      <point x="672" y="1135" type="qcurve" smooth="yes"/>
      <point x="672" y="1205"/>
      <point x="582" y="1295"/>
      <point x="512" y="1295" type="qcurve" smooth="yes"/>
      <point x="442" y="1295"/>
      <point x="352" y="1205"/>
    </contour>
  </outline>
</glyph>
<glyph name="ogonek" format="2">
  <advance width="1024"/>
  <unicode hex="02DB"/>
  <outline>
    <contour>
      <point x="537.0" y="6.0" type="qcurve"/>
      <point x="546.0" y="0.0" type="line"/>
      <point x="449.0" y="-64.0"/>
      <point x="345.0" y="-198.0"/>
      <point x="345.0" y="-259.0" type="qcurve" smooth="yes"/>
      <point x="345.0" y="-314.0"/>
      <point x="413.0" y="-384.0"/>
      <point x="465.0" y="-384.0" type="qcurve" smooth="yes"/>
      <point x="514.0" y="-384.0"/>
      <point x="613.0" y="-346.0"/>
      <point x="628.0" y="-338.0" type="qcurve"/>
      <point x="630.0" y="-348.0" type="line"/>
      <point x="613.0" y="-357.0"/>
      <point x="516.0" y="-394.0"/>
      <point x="464.0" y="-394.0" type="qcurve" smooth="yes"/>
      <point x="408.0" y="-394.0"/>
      <point x="335.0" y="-319.0"/>
      <point x="335.0" y="-261.0" type="qcurve" smooth="yes"/>
      <point x="335.0" y="-197.0"/>
      <point x="440.0" y="-58.0"/>
    </contour>
  </outline>
</glyph>
<glyph name="tilde" format="2">
  <advance width="1024"/>
  <unicode hex="02DC"/>
  <outline>
    <contour>
      <point x="227.0" y="1055.0" type="line"/>
      <point x="266.0" y="1106.0"/>
      <point x="348.0" y="1152.0"/>
      <point x="401.0" y="1152.0" type="qcurve" smooth="yes"/>
      <point x="427.0" y="1152.0"/>
      <point x="493.0" y="1128.0"/>
      <point x="540.0" y="1102.0" type="qcurve" smooth="yes"/>
      <point x="583.0" y="1079.0"/>
      <point x="643.0" y="1058.0"/>
      <point x="667.0" y="1058.0" type="qcurve" smooth="yes"/>
      <point x="718.0" y="1058.0"/>
      <point x="791.0" y="1098.0"/>
      <point x="821.0" y="1142.0" type="qcurve"/>
      <point x="826.0" y="1137.0" type="line"/>
      <point x="794.0" y="1091.0"/>
      <point x="719.0" y="1050.0"/>
      <point x="666.0" y="1050.0" type="qcurve" smooth="yes"/>
      <point x="640.0" y="1050.0"/>
      <point x="579.0" y="1071.0"/>
      <point x="536.0" y="1095.0" type="qcurve" smooth="yes"/>
      <point x="490.0" y="1121.0"/>
      <point x="426.0" y="1144.0"/>
      <point x="400.0" y="1144.0" type="qcurve" smooth="yes"/>
      <point x="348.0" y="1144.0"/>
      <point x="269.0" y="1100.0"/>
      <point x="232.0" y="1050.0" type="qcurve"/>
    </contour>
  </outline>
</glyph>
<glyph name="hookabovecomb" format="2">
  <advance width="1024"/>
  <unicode hex="0309"/>
  <anchor x="512.0" y="914" name="_top"/>
  <anchor x="512.0" y="1428.0" name="top"/>
  <outline>
    <contour>
      <point x="439.0" y="1050.0" type="line"/>
      <point x="439.0" y="1119.0" type="line" smooth="yes"/>
      <point x="439.0" y="1129.0"/>
      <point x="447.0" y="1138.0"/>
      <point x="459.0" y="1139.0" type="qcurve" smooth="yes"/>
      <point x="584.0" y="1145.0"/>
      <point x="683.0" y="1220.0"/>
      <point x="683.0" y="1280.0" type="qcurve" smooth="yes"/>
      <point x="683.0" y="1346.0"/>
      <point x="599.0" y="1418.0"/>
      <point x="521.0" y="1418.0" type="qcurve" smooth="yes"/>
      <point x="457.0" y="1418.0"/>
      <point x="343.0" y="1389.0"/>
      <point x="315.0" y="1373.0" type="qcurve"/>
      <point x="310.0" y="1382.0" type="line"/>
      <point x="341.0" y="1398.0"/>
      <point x="458.0" y="1428.0"/>
      <point x="522.0" y="1428.0" type="qcurve" smooth="yes"/>
      <point x="604.0" y="1428.0"/>
      <point x="693.0" y="1351.0"/>
      <point x="693.0" y="1279.0" type="qcurve" smooth="yes"/>
      <point x="693.0" y="1215.0"/>
      <point x="586.0" y="1134.0"/>
      <point x="449.0" y="1128.0" type="qcurve"/>
      <point x="449.0" y="1050.0" type="line"/>
    </contour>
  </outline>
</glyph>
<glyph name="commaaccentcomb" format="2">
  <advance width="1024"/>
  <unicode hex="0326"/>
  <anchor x="512.0" y="0" name="_bottom"/>
  <anchor x="512.0" y="-600.0" name="bottom"/>
  <outline>
    <contour>
      <point x="410.0" y="-598.0" type="line"/>
      <point x="442.0" y="-494.0"/>
      <point x="484.0" y="-353.0"/>
      <point x="520.0" y="-225.0" type="qcurve"/>
      <point x="532.0" y="-223.0" type="line"/>
      <point x="418.0" y="-600.0" type="line"/>
    </contour>
  </outline>
</glyph>
<glyph name="Delta" format="2">
  <advance width="1131"/>
  <unicode hex="0394"/>
  <outline>
    <contour>
      <point x="40.0" y="0.0" type="line"/>
      <point x="40.0" y="10.0" type="line"/>
      <point x="549.0" y="1456.0" type="line"/>
      <point x="565.0" y="1456.0" type="line"/>
      <point x="1091.0" y="10.0" type="line"/>
      <point x="1091.0" y="0.0" type="line"/>
    </contour>
    <contour>
      <point x="50.0" y="10.0" type="line"/>
      <point x="1081.0" y="10.0" type="line"/>
      <point x="624.0" y="1265.0" type="line" smooth="yes"/>
      <point x="607" y="1313"/>
      <point x="577.0" y="1399.0"/>
      <point x="559.0" y="1446.0" type="qcurve"/>
      <point x="555.0" y="1446.0" type="line"/>
      <point x="539.0" y="1400.0"/>
      <point x="508" y="1312"/>
      <point x="492.0" y="1265.0" type="qcurve" smooth="yes"/>
    </contour>
  </outline>
</glyph>
<glyph name="Lambda" format="2">
  <advance width="982"/>
  <unicode hex="039B"/>
  <outline>
    <contour>
      <point x="0.0" y="0.0" type="line"/>
      <point x="476.0" y="1456.0" type="line"/>
      <point x="494.0" y="1456.0" type="line"/>
      <point x="982.0" y="0.0" type="line"/>
      <point x="971.0" y="0.0" type="line"/>
      <point x="547.0" y="1266.0" type="line" smooth="yes"/>
      <point x="529" y="1320"/>
      <point x="504.0" y="1401.0"/>
      <point x="487.0" y="1446.0" type="qcurve"/>
      <point x="483.0" y="1446.0" type="line"/>
      <point x="467.0" y="1401.0"/>
      <point x="441" y="1319"/>
      <point x="424.0" y="1266.0" type="qcurve" smooth="yes"/>
      <point x="11.0" y="0.0" type="line"/>
    </contour>
  </outline>
</glyph>
<glyph name="Sigma" format="2">
  <advance width="973"/>
  <unicode hex="03A3"/>
  <outline>
    <contour>
      <point x="16.0" y="0.0" type="line"/>
      <point x="16.0" y="10.0" type="line"/>
      <point x="478.0" y="734.0" type="line"/>
      <point x="478.0" y="728.0" type="line"/>
      <point x="60.0" y="1446.0" type="line"/>
      <point x="60.0" y="1456.0" type="line"/>
      <point x="931.0" y="1456.0" type="line"/>
      <point x="931.0" y="1446.0" type="line"/>
      <point x="65.0" y="1446.0" type="line"/>
      <point x="71.0" y="1448.0" type="line"/>
      <point x="485.0" y="736.0" type="line"/>
      <point x="485.0" y="726.0" type="line"/>
      <point x="25.0" y="7.0" type="line"/>
      <point x="18.0" y="10.0" type="line"/>
      <point x="958.0" y="10.0" type="line"/>
      <point x="958.0" y="0.0" type="line"/>
    </contour>
  </outline>
</glyph>
<glyph name="beta" format="2">
  <advance width="941"/>
  <unicode hex="03B2"/>
  <outline>
    <contour>
      <point x="118.0" y="-444.0" type="line"/>
      <point x="118.0" y="1005.0" type="line" smooth="yes"/>
      <point x="118.0" y="1248.0"/>
      <point x="305.0" y="1478.0"/>
      <point x="477.0" y="1478.0" type="qcurve" smooth="yes"/>
      <point x="620.0" y="1478.0"/>
      <point x="797" y="1280"/>
      <point x="797.0" y="1136" type="qcurve" smooth="yes"/>
      <point x="797.0" y="979.0"/>
      <point x="616" y="801"/>
      <point x="507.0" y="796.0" type="qcurve"/>
      <point x="507.0" y="797.0" type="line"/>
      <point x="679" y="794.0"/>
      <point x="885.0" y="595.0"/>
      <point x="885.0" y="414.0" type="qcurve" smooth="yes"/>
      <point x="885" y="225"/>
      <point x="695.0" y="-19.0"/>
      <point x="507.0" y="-19.0" type="qcurve" smooth="yes"/>
      <point x="380.0" y="-19.0"/>
      <point x="191.0" y="66.0"/>
      <point x="128.0" y="135.0" type="qcurve"/>
      <point x="128.0" y="-444.0" type="line"/>
    </contour>
    <contour>
      <point x="507" y="-9.0" type="qcurve" smooth="yes"/>
      <point x="687" y="-9"/>
      <point x="875.0" y="226.0"/>
      <point x="875.0" y="413" type="qcurve" smooth="yes"/>
      <point x="875.0" y="595"/>
      <point x="664.0" y="791.0"/>
      <point x="468.0" y="791.0" type="qcurve" smooth="yes"/>
      <point x="321.0" y="791.0" type="line"/>
      <point x="321.0" y="801.0" type="line"/>
      <point x="468.0" y="801.0" type="line" smooth="yes"/>
      <point x="604" y="801"/>
      <point x="787.0" y="983.0"/>
      <point x="787.0" y="1136.0" type="qcurve" smooth="yes"/>
      <point x="787.0" y="1276.0"/>
      <point x="616" y="1468"/>
      <point x="472.0" y="1468.0" type="qcurve" smooth="yes"/>
      <point x="306" y="1468.0"/>
      <point x="128.0" y="1244"/>
      <point x="128.0" y="1032.0" type="qcurve" smooth="yes"/>
      <point x="128.0" y="148.0" type="line"/>
      <point x="186" y="80"/>
      <point x="374" y="-9"/>
    </contour>
  </outline>
</glyph>
<glyph name="delta" format="2">
  <advance width="907"/>
  <unicode hex="03B4"/>
  <outline>
    <contour>
      <point x="447.0" y="-20.0" type="qcurve" smooth="yes"/>
      <point x="259.0" y="-20.0"/>
      <point x="56.0" y="229.0"/>
      <point x="56.0" y="460.0" type="qcurve" smooth="yes"/>
      <point x="56.0" y="478.0" type="line" smooth="yes"/>
      <point x="56.0" y="679.0"/>
      <point x="263.0" y="942.0"/>
      <point x="455.0" y="987.0" type="qcurve"/>
      <point x="464.0" y="982.0" type="line"/>
      <point x="272.0" y="937.0"/>
      <point x="66.0" y="676.0"/>
      <point x="66.0" y="478.0" type="qcurve" smooth="yes"/>
      <point x="66.0" y="460.0" type="line" smooth="yes"/>
      <point x="66.0" y="234.0"/>
      <point x="263" y="-10.0"/>
      <point x="446" y="-10.0" type="qcurve"/>
      <point x="636" y="-10.0"/>
      <point x="841.0" y="239.0"/>
      <point x="841.0" y="470.0" type="qcurve" smooth="yes"/>
      <point x="841.0" y="507.0" type="line" smooth="yes"/>
      <point x="841.0" y="666.0"/>
      <point x="672" y="885"/>
      <point x="483" y="970" type="qcurve" smooth="yes"/>
      <point x="364" y="1023"/>
      <point x="257.0" y="1148.0"/>
      <point x="257.0" y="1232.0" type="qcurve" smooth="yes"/>
      <point x="257" y="1351"/>
      <point x="408.0" y="1478.0"/>
      <point x="548.0" y="1478.0" type="qcurve" smooth="yes"/>
      <point x="621.0" y="1477.0"/>
      <point x="764.0" y="1435.0"/>
      <point x="801.0" y="1411.0" type="qcurve"/>
      <point x="798.0" y="1402.0" type="line"/>
      <point x="760.0" y="1427.0"/>
      <point x="618.0" y="1468.0"/>
      <point x="546.0" y="1468.0" type="qcurve" smooth="yes"/>
      <point x="412.0" y="1468.0"/>
      <point x="267.0" y="1345.0"/>
      <point x="267.0" y="1231.0" type="qcurve" smooth="yes"/>
      <point x="267.0" y="1150.0"/>
      <point x="371" y="1030"/>
      <point x="488" y="978" type="qcurve" smooth="yes"/>
      <point x="679" y="892"/>
      <point x="851.0" y="669.0"/>
      <point x="851.0" y="507.0" type="qcurve" smooth="yes"/>
      <point x="851.0" y="470.0" type="line" smooth="yes"/>
      <point x="851.0" y="234.0"/>
      <point x="642.0" y="-20.0"/>
    </contour>
  </outline>
</glyph>
<glyph name="eta" format="2">
  <advance width="880"/>
  <unicode hex="03B7"/>
  <anchor x="266.0" y="914.0" name="GRK_top"/>
  <outline>
    <contour>
      <point x="785" y="-444" type="line"/>
      <point x="785" y="656" type="line" smooth="yes"/>
      <point x="785" y="796"/>
      <point x="629" y="924"/>
      <point x="490" y="924" type="qcurve" smooth="yes"/>
      <point x="361" y="924"/>
      <point x="179" y="803"/>
      <point x="133" y="724" type="qcurve"/>
      <point x="133" y="0" type="line"/>
      <point x="123" y="0" type="line"/>
      <point x="123" y="914" type="line"/>
      <point x="133" y="914" type="line"/>
      <point x="133" y="735" type="line"/>
      <point x="133" y="735" type="line"/>
      <point x="173" y="809"/>
      <point x="357" y="934"/>
      <point x="490" y="934" type="qcurve"/>
      <point x="632" y="934"/>
      <point x="795" y="804"/>
      <point x="795" y="660" type="qcurve" smooth="yes"/>
      <point x="795" y="-444" type="line"/>
    </contour>
  </outline>
</glyph>
<glyph name="theta" format="2">
  <advance width="907"/>
  <unicode hex="03B8"/>
  <outline>
    <contour>
      <point x="451.0" y="-20.0" type="qcurve" smooth="yes"/>
      <point x="247.0" y="-20.0"/>
      <point x="65.0" y="286.0"/>
      <point x="65.0" y="627.0" type="qcurve"/>
      <point x="65.0" y="841.0" type="line"/>
      <point x="65.0" y="1177.0"/>
      <point x="247.0" y="1478.0"/>
      <point x="449.0" y="1478.0" type="qcurve" smooth="yes"/>
      <point x="653.0" y="1478.0"/>
      <point x="835.0" y="1177.0"/>
      <point x="835.0" y="841.0" type="qcurve"/>
      <point x="835.0" y="627.0" type="line"/>
      <point x="835.0" y="286.0"/>
      <point x="653.0" y="-20.0"/>
    </contour>
    <contour>
      <point x="450.0" y="-10.0" type="qcurve" smooth="yes"/>
      <point x="648.0" y="-10.0"/>
      <point x="825.0" y="287.0"/>
      <point x="825.0" y="618.0" type="qcurve"/>
      <point x="825.0" y="853.0" type="line" smooth="yes"/>
      <point x="825.0" y="1177.0"/>
      <point x="647.0" y="1468.0"/>
      <point x="448.0" y="1468.0" type="qcurve" smooth="yes"/>
      <point x="251.0" y="1468.0"/>
      <point x="75.0" y="1177.0"/>
      <point x="75.0" y="853.0" type="qcurve" smooth="yes"/>
      <point x="75.0" y="618.0" type="line" smooth="yes"/>
      <point x="75.0" y="287.0"/>
      <point x="252.0" y="-10.0"/>
    </contour>
    <contour>
      <point x="70.0" y="730.0" type="line"/>
      <point x="70.0" y="740.0" type="line"/>
      <point x="830.0" y="740.0" type="line"/>
      <point x="830.0" y="730.0" type="line"/>
    </contour>
  </outline>
</glyph>
<glyph name="xi" format="2">
  <advance width="693"/>
  <unicode hex="03BE"/>
  <outline>
    <contour>
      <point x="628" y="-348" type="line"/>
      <point x="657" y="-295"/>
      <point x="677" y="-220"/>
      <point x="677" y="-177" type="qcurve"/>
      <point x="677" y="-96"/>
      <point x="586" y="-18"/>
      <point x="438" y="27" type="qcurve"/>
      <point x="341" y="58" type="line" smooth="yes"/>
      <point x="190" y="105"/>
      <point x="55" y="278"/>
      <point x="55" y="424" type="qcurve"/>
      <point x="59" y="572"/>
      <point x="219" y="743"/>
      <point x="368" y="755" type="qcurve"/>
      <point x="368" y="754" type="line"/>
      <point x="227" y="765"/>
      <point x="103" y="917"/>
      <point x="103" y="1063" type="qcurve" smooth="yes"/>
      <point x="103" y="1225"/>
      <point x="310" y="1420"/>
      <point x="490" y="1443" type="qcurve"/>
      <point x="490" y="1446" type="line"/>
      <point x="60" y="1446" type="line"/>
      <point x="60" y="1456" type="line"/>
      <point x="651" y="1456" type="line"/>
      <point x="651" y="1446" type="line"/>
      <point x="391" y="1448"/>
      <point x="112" y="1249"/>
      <point x="112" y="1063" type="qcurve" smooth="yes"/>
      <point x="112" y="902"/>
      <point x="258" y="759"/>
      <point x="420" y="760" type="qcurve" smooth="yes"/>
      <point x="590" y="760" type="line"/>
      <point x="590" y="750" type="line"/>
      <point x="420" y="750" type="line" smooth="yes"/>
      <point x="249" y="750"/>
      <point x="65" y="583"/>
      <point x="65" y="427" type="qcurve" smooth="yes"/>
      <point x="65" y="285"/>
      <point x="194" y="115"/>
      <point x="344" y="67" type="qcurve" smooth="yes"/>
      <point x="441" y="36" type="line" smooth="yes"/>
      <point x="593" y="-11"/>
      <point x="687" y="-91"/>
      <point x="687" y="-173" type="qcurve"/>
      <point x="687" y="-222"/>
      <point x="664" y="-305"/>
      <point x="639" y="-348" type="qcurve"/>
    </contour>
  </outline>
</glyph>
<glyph name="sigma" format="2">
  <advance width="968"/>
  <unicode hex="03C3"/>
  <outline>
    <contour>
      <point x="461.0" y="-20.0" type="qcurve" smooth="yes"/>
      <point x="284.0" y="-20.0"/>
      <point x="55.0" y="235.0"/>
      <point x="55.0" y="432.0" type="qcurve" smooth="yes"/>
      <point x="55.0" y="464.0" type="line" smooth="yes"/>
      <point x="55.0" y="681.0"/>
      <point x="305.0" y="914.0"/>
      <point x="537.0" y="914.0" type="qcurve"/>
      <point x="948.0" y="914.0" type="line"/>
      <point x="948.0" y="904.0" type="line"/>
      <point x="560.0" y="904.0" type="line"/>
      <point x="559.0" y="907.0" type="line"/>
      <point x="705.0" y="866.0"/>
      <point x="863.0" y="632.0"/>
      <point x="863.0" y="468.0" type="qcurve" smooth="yes"/>
      <point x="863.0" y="435.0" type="line" smooth="yes"/>
      <point x="863.0" y="236.0"/>
      <point x="636.0" y="-20.0"/>
    </contour>
    <contour>
      <point x="461.0" y="-10.0" type="qcurve" smooth="yes"/>
      <point x="632.0" y="-10.0"/>
      <point x="853.0" y="239.0"/>
      <point x="853.0" y="431.0" type="qcurve" smooth="yes"/>
      <point x="853.0" y="471.0" type="line" smooth="yes"/>
      <point x="853.0" y="638.0"/>
      <point x="693.0" y="862.0"/>
      <point x="544.0" y="904.0" type="qcurve"/>
      <point x="316.0" y="906.0"/>
      <point x="65" y="681.0"/>
      <point x="65.0" y="452.0" type="qcurve" smooth="yes"/>
      <point x="65.0" y="432.0" type="line" smooth="yes"/>
      <point x="65.0" y="239.0"/>
      <point x="288.0" y="-10.0"/>
    </contour>
  </outline>
</glyph>
<glyph name="tau" format="2">
  <advance width="539"/>
  <unicode hex="03C4"/>
  <outline>
    <contour>
      <point x="-30" y="904" type="line"/>
      <point x="-30" y="914" type="line"/>
      <point x="519" y="914" type="line"/>
      <point x="519" y="904" type="line"/>
    </contour>
    <contour>
      <point x="395" y="-20" type="qcurve" smooth="yes"/>
      <point x="300" y="-20"/>
      <point x="215" y="110"/>
      <point x="215" y="255" type="qcurve" smooth="yes"/>
      <point x="215" y="914" type="line"/>
      <point x="225" y="914" type="line"/>
      <point x="225" y="255" type="line" smooth="yes"/>
      <point x="225" y="115"/>
      <point x="306" y="-10"/>
      <point x="397" y="-10" type="qcurve" smooth="yes"/>
      <point x="425" y="-10"/>
      <point x="469" y="-5"/>
      <point x="489" y="0" type="qcurve"/>
      <point x="489" y="-10" type="line"/>
      <point x="470" y="-15"/>
      <point x="426" y="-20"/>
    </contour>
  </outline>
</glyph>
<glyph name="kaisymbol" format="2">
  <advance width="689"/>
  <unicode hex="03D7"/>
  <outline>
    <contour>
      <point x="241" y="-407" type="line"/>
      <point x="235" y="-398" type="line"/>
      <point x="691" y="-16" type="line"/>
      <point x="326" y="479" type="line"/>
      <point x="128" y="479" type="line"/>
      <point x="128" y="0" type="line"/>
      <point x="118" y="0" type="line"/>
      <point x="118" y="914" type="line"/>
      <point x="128" y="914" type="line"/>
      <point x="128" y="488" type="line"/>
      <point x="328" y="488" type="line"/>
      <point x="627" y="914" type="line"/>
      <point x="640" y="914" type="line"/>
      <point x="334" y="482" type="line"/>
      <point x="705" y="-17" type="line"/>
    </contour>
  </outline>
</glyph>
<glyph name="Ieukran" format="2">
  <advance width="1104"/>
  <unicode hex="0404"/>
  <guideline x="297" y="731" angle="90" identifier="ECzypWiAig"/>
  <guideline x="211" y="787" angle="90" identifier="aEihwrEwEg"/>
  <guideline x="211" y="787" angle="90" identifier="No8lsTqkbR"/>
  <guideline x="297" y="731" angle="90" identifier="jhGU0tNwfm"/>
  <outline>
    <contour>
      <point x="97" y="743" type="line"/>
      <point x="745" y="743" type="line"/>
      <point x="745" y="733" type="line"/>
      <point x="97" y="733" type="line"/>
    </contour>
    <contour>
      <point x="92" y="720" type="qcurve" smooth="yes"/>
      <point x="92" y="752" type="line" smooth="yes"/>
      <point x="92" y="1153"/>
      <point x="351" y="1476"/>
      <point x="591" y="1476" type="qcurve" smooth="yes"/>
      <point x="810" y="1476"/>
      <point x="1046" y="1251"/>
      <point x="1046" y="1025" type="qcurve" smooth="yes"/>
      <point x="1046" y="984" type="line"/>
      <point x="1036" y="984" type="line"/>
      <point x="1036" y="1019" type="line" smooth="yes"/>
      <point x="1036" y="1247"/>
      <point x="805" y="1466"/>
      <point x="591" y="1466" type="qcurve" smooth="yes"/>
      <point x="355" y="1466"/>
      <point x="102" y="1148"/>
      <point x="102" y="752" type="qcurve" smooth="yes"/>
      <point x="102" y="720" type="line" smooth="yes"/>
      <point x="102" y="307"/>
      <point x="355" y="-10"/>
      <point x="591" y="-10" type="qcurve" smooth="yes"/>
      <point x="805" y="-10"/>
      <point x="1036" y="221"/>
      <point x="1036" y="437" type="qcurve" smooth="yes"/>
      <point x="1036" y="472" type="line"/>
      <point x="1046" y="472" type="line"/>
      <point x="1046" y="431" type="line" smooth="yes"/>
      <point x="1046" y="217"/>
      <point x="810" y="-20"/>
      <point x="591" y="-20" type="qcurve"/>
      <point x="351" y="-20"/>
      <point x="92" y="300"/>
    </contour>
  </outline>
</glyph>
<glyph name="Nje" format="2">
  <advance width="1711"/>
  <unicode hex="040A"/>
  <outline>
    <contour>
      <point x="150" y="0" type="line"/>
      <point x="150" y="1456" type="line"/>
      <point x="160" y="1456" type="line"/>
      <point x="160" y="782" type="line"/>
      <point x="920" y="782" type="line"/>
      <point x="920" y="1456" type="line"/>
      <point x="930" y="1456" type="line"/>
      <point x="930" y="782" type="line"/>
      <point x="1267" y="782" type="line" smooth="yes"/>
      <point x="1467" y="782"/>
      <point x="1662" y="561"/>
      <point x="1662" y="391" type="qcurve" smooth="yes"/>
      <point x="1662" y="221"/>
      <point x="1467" y="0"/>
      <point x="1267" y="0" type="qcurve" smooth="yes"/>
      <point x="920" y="0" type="line"/>
      <point x="920" y="772" type="line"/>
      <point x="160" y="772" type="line"/>
      <point x="160" y="0" type="line"/>
    </contour>
    <contour>
      <point x="930" y="772" type="line"/>
      <point x="930" y="10" type="line"/>
      <point x="1257" y="10" type="line" smooth="yes"/>
      <point x="1462" y="10"/>
      <point x="1651" y="227"/>
      <point x="1651" y="391" type="qcurve" smooth="yes"/>
      <point x="1651" y="555"/>
      <point x="1461" y="772"/>
      <point x="1255" y="772" type="qcurve" smooth="yes"/>
    </contour>
  </outline>
</glyph>
<glyph name="De" format="2">
  <advance width="1247"/>
  <unicode hex="0414"/>
  <outline>
    <contour>
      <point x="1217" y="-280" type="line"/>
      <point x="1217" y="0" type="line"/>
      <point x="20" y="0" type="line"/>
      <point x="20" y="-280" type="line"/>
      <point x="10" y="-280" type="line"/>
      <point x="10" y="10" type="line"/>
      <point x="1227" y="10" type="line"/>
      <point x="1227" y="-280" type="line"/>
    </contour>
    <contour>
      <point x="294" y="1456" type="line"/>
      <point x="1037" y="1456" type="line"/>
      <point x="1037" y="0" type="line"/>
      <point x="1027" y="0" type="line"/>
      <point x="1027" y="1446" type="line"/>
      <point x="304" y="1446" type="line"/>
      <point x="269" y="550" type="line" smooth="yes"/>
      <point x="261" y="334"/>
      <point x="207" y="77"/>
      <point x="166" y="7" type="qcurve"/>
      <point x="154" y="7" type="line"/>
      <point x="196" y="75"/>
      <point x="251" y="333"/>
      <point x="259" y="550" type="qcurve" smooth="yes"/>
    </contour>
  </outline>
</glyph>
<glyph name="El" format="2">
  <advance width="1170"/>
  <unicode hex="041B"/>
  <outline>
    <contour>
      <point x="300" y="1456" type="line"/>
      <point x="1020" y="1456" type="line"/>
      <point x="1020" y="0" type="line"/>
      <point x="1010" y="0" type="line"/>
      <point x="1010" y="1446" type="line"/>
      <point x="309" y="1446" type="line"/>
      <point x="271" y="532" type="line" smooth="yes"/>
      <point x="258" y="230"/>
      <point x="181" y="-20"/>
      <point x="86" y="-20" type="qcurve" smooth="yes"/>
      <point x="63" y="-20"/>
      <point x="27" y="-15"/>
      <point x="10" y="-10" type="qcurve"/>
      <point x="10" y="1" type="line"/>
      <point x="29" y="-5"/>
      <point x="65" y="-10"/>
      <point x="86" y="-10" type="qcurve" smooth="yes"/>
      <point x="174" y="-10"/>
      <point x="248" y="233"/>
      <point x="261" y="532" type="qcurve" smooth="yes"/>
    </contour>
  </outline>
</glyph>
<glyph name="Pe" format="2">
	<unicode hex="041F"/>
	<advance width="1160"/>
	<outline>
		<contour>
			<point x="150" y="0" type="line"/>
			<point x="150" y="1456" type="line"/>
			<point x="1010" y="1456" type="line"/>
			<point x="1010" y="0" type="line"/>
			<point x="1000" y="0" type="line"/>
			<point x="1000" y="1446" type="line"/>
			<point x="160" y="1446" type="line"/>
			<point x="160" y="0" type="line"/>
		</contour>
	</outline>
</glyph>
<glyph name="Tse" format="2">
  <advance width="1220"/>
  <unicode hex="0426"/>
  <outline>
    <contour>
      <point x="1190" y="-280" type="line"/>
      <point x="1190" y="0" type="line"/>
      <point x="150" y="0" type="line"/>
      <point x="150" y="1456" type="line"/>
      <point x="160" y="1456" type="line"/>
      <point x="160" y="10" type="line"/>
      <point x="1000" y="10" type="line"/>
      <point x="1000" y="1456" type="line"/>
      <point x="1010" y="1456" type="line"/>
      <point x="1010" y="10" type="line"/>
      <point x="1200" y="10" type="line"/>
      <point x="1200" y="-280" type="line"/>
    </contour>
  </outline>
</glyph>
<glyph name="Sha" format="2">
  <advance width="1750"/>
  <unicode hex="0428"/>
  <outline>
    <contour>
      <point x="150" y="1456" type="line"/>
      <point x="160" y="1456" type="line"/>
      <point x="160" y="10" type="line"/>
      <point x="870" y="10" type="line"/>
      <point x="870" y="1456" type="line"/>
      <point x="880" y="1456" type="line"/>
      <point x="880" y="10" type="line"/>
      <point x="1590" y="10" type="line"/>
      <point x="1590" y="1456" type="line"/>
      <point x="1600" y="1456" type="line"/>
      <point x="1600" y="0" type="line"/>
      <point x="150" y="0" type="line"/>
    </contour>
  </outline>
</glyph>
<glyph name="Shcha" format="2">
  <advance width="1810"/>
  <unicode hex="0429"/>
  <outline>
    <contour>
      <point x="150" y="1456" type="line"/>
      <point x="160" y="1456" type="line"/>
      <point x="160" y="10" type="line"/>
      <point x="870" y="10" type="line"/>
      <point x="870" y="1456" type="line"/>
      <point x="880" y="1456" type="line"/>
      <point x="880" y="10" type="line"/>
      <point x="1590" y="10" type="line"/>
      <point x="1590" y="1456" type="line"/>
      <point x="1600" y="1456" type="line"/>
      <point x="1600" y="10" type="line"/>
      <point x="1790" y="10" type="line"/>
      <point x="1790" y="-280" type="line"/>
      <point x="1780" y="-280" type="line"/>
      <point x="1780" y="0" type="line"/>
      <point x="150" y="0" type="line"/>
    </contour>
  </outline>
</glyph>
<glyph name="soft" format="2">
  <advance width="825"/>
  <unicode hex="044C"/>
  <outline>
    <contour>
      <point x="133" y="914" type="line"/>
      <point x="133" y="544" type="line"/>
      <point x="480" y="544" type="line" smooth="yes"/>
      <point x="627.0" y="544.0"/>
      <point x="765.0" y="393.0"/>
      <point x="765" y="272" type="qcurve" smooth="yes"/>
      <point x="765.0" y="151.0"/>
      <point x="628.0" y="0.0"/>
      <point x="480" y="0" type="qcurve" smooth="yes"/>
      <point x="123" y="0" type="line"/>
      <point x="123" y="914" type="line"/>
    </contour>
    <contour>
      <point x="475" y="534" type="qcurve" smooth="yes"/>
      <point x="133" y="534" type="line"/>
      <point x="133" y="10" type="line"/>
      <point x="475" y="10" type="line" smooth="yes"/>
      <point x="622.0" y="10.0"/>
      <point x="754.0" y="155.0"/>
      <point x="754" y="272" type="qcurve" smooth="yes"/>
      <point x="754" y="388"/>
      <point x="622.0" y="534.0"/>
    </contour>
  </outline>
</glyph>
<glyph name="dje" format="2">
	<unicode hex="0452"/>
	<advance width="908"/>
	<outline>
		<contour>
			<point x="264" y="1205" type="line"/>
			<point x="25" y="1205" type="line"/>
			<point x="26" y="1215" type="line"/>
			<point x="269" y="1215" type="line"/>
			<point x="502" y="1215" type="line"/>
			<point x="502" y="1205" type="line"/>
		</contour>
		<contour>
			<point x="795" y="-210" type="line" smooth="yes"/>
			<point x="795" y="-319"/>
			<point x="710" y="-436"/>
			<point x="629" y="-436" type="qcurve" smooth="yes"/>
			<point x="598" y="-436"/>
			<point x="551" y="-423"/>
			<point x="539" y="-418" type="qcurve"/>
			<point x="539" y="-406" type="line"/>
			<point x="553" y="-413"/>
			<point x="600" y="-426"/>
			<point x="629" y="-426" type="qcurve" smooth="yes"/>
			<point x="707" y="-426"/>
			<point x="785" y="-312"/>
			<point x="785" y="-200" type="qcurve" smooth="yes"/>
			<point x="785" y="656" type="line" smooth="yes"/>
			<point x="785" y="796"/>
			<point x="629" y="924"/>
			<point x="490" y="924" type="qcurve" smooth="yes"/>
			<point x="361" y="924"/>
			<point x="179" y="803"/>
			<point x="133" y="724" type="qcurve"/>
			<point x="133" y="0" type="line"/>
			<point x="123" y="0" type="line"/>
			<point x="123" y="1454" type="line"/>
			<point x="133" y="1454" type="line"/>
			<point x="133" y="735" type="line"/>
			<point x="173" y="809"/>
			<point x="357" y="934"/>
			<point x="490" y="934" type="qcurve" smooth="yes"/>
			<point x="632" y="934"/>
			<point x="795" y="804"/>
			<point x="795" y="660" type="qcurve" smooth="yes"/>
		</contour>
	</outline>
</glyph>
<glyph name="Zhedescender" format="2">
	<unicode hex="0496"/>
	<advance width="1535"/>
	<outline>
		<contour>
			<point x="690" y="0" type="line"/>
			<point x="690" y="1456" type="line"/>
			<point x="700" y="1456" type="line"/>
			<point x="700" y="0" type="line"/>
		</contour>
		<contour>
			<point x="1423" y="0" type="line"/>
			<point x="942" y="756" type="line"/>
			<point x="949" y="764" type="line"/>
			<point x="1436" y="0" type="line"/>
		</contour>
		<contour>
			<point x="-33" y="0" type="line"/>
			<point x="-46" y="0" type="line"/>
			<point x="441" y="764" type="line"/>
			<point x="448" y="756" type="line"/>
		</contour>
		<contour>
			<point x="695" y="763" type="line"/>
			<point x="695" y="753" type="line"/>
			<point x="441" y="753" type="line"/>
			<point x="2" y="1456" type="line"/>
			<point x="15" y="1456" type="line"/>
			<point x="446" y="763" type="line"/>
		</contour>
		<contour>
			<point x="695" y="763" type="line"/>
			<point x="944" y="763" type="line"/>
			<point x="1375" y="1456" type="line"/>
			<point x="1388" y="1456" type="line"/>
			<point x="949" y="753" type="line"/>
			<point x="695" y="753" type="line"/>
		</contour>
		<contour>
			<point x="1423" y="0" type="line"/>
			<point x="1423" y="10" type="line"/>
			<point x="1565" y="10" type="line"/>
			<point x="1565" y="-280" type="line"/>
			<point x="1555" y="-280" type="line"/>
			<point x="1555" y="0" type="line"/>
		</contour>
	</outline>
	<guideline x="510" y="818" angle="90" identifier="LxfLwWU0sJ"/>
</glyph>
<glyph name="Kaverticalstrokecyr" format="2">
  <advance width="1165"/>
  <unicode hex="049C"/>
  <guideline x="709" y="669" angle="90" identifier="LxfLwWU0sJ"/>
  <outline>
    <contour>
      <point x="150" y="0" type="line"/>
      <point x="150" y="1456" type="line"/>
      <point x="160" y="1456" type="line"/>
      <point x="160" y="0" type="line"/>
    </contour>
    <contour>
      <point x="1198" y="0" type="line"/>
      <point x="707" y="756" type="line"/>
      <point x="714" y="764" type="line"/>
      <point x="1211" y="0" type="line"/>
    </contour>
    <contour>
      <point x="460" y="763" type="line"/>
      <point x="709" y="763" type="line"/>
      <point x="1150" y="1456" type="line"/>
      <point x="1163" y="1456" type="line"/>
      <point x="714" y="753" type="line"/>
      <point x="460" y="753" type="line"/>
    </contour>
    <contour>
      <point x="455" y="300" type="line"/>
      <point x="455" y="1156" type="line"/>
      <point x="465" y="1156" type="line"/>
      <point x="465" y="300" type="line"/>
    </contour>
  </outline>
</glyph>
<glyph name="kaverticalstrokecyr" format="2">
  <advance width="1002"/>
  <unicode hex="049D"/>
  <guideline x="241" y="553" angle="90" identifier="lmgRx0QBdK"/>
  <guideline x="820" y="707" angle="90" identifier="81y230ieqc"/>
  <guideline x="241" y="553" angle="90" identifier="ZW5Iz1mBWB"/>
  <guideline x="241" y="553" angle="90" identifier="SEsoFV2OJK"/>
  <guideline x="241" y="553" angle="90" identifier="8aKqQjFWE2"/>
  <guideline x="446" y="531" angle="90" identifier="a7QRUWekrc"/>
  <guideline x="241" y="553" angle="90" identifier="NrC5LAokg8"/>
  <guideline x="241" y="553" angle="90" identifier="ZbvAtXKu3i"/>
  <guideline x="359" y="598" angle="90" identifier="9GaR5WYSbA"/>
  <guideline x="446" y="531" angle="90" identifier="BTwK0Occzr"/>
  <guideline x="241" y="553" angle="90" identifier="qVoxYkqld8"/>
  <guideline x="241" y="553" angle="90" identifier="uQv5IYyF7F"/>
  <outline>
    <contour>
      <point x="373" y="734" type="line"/>
      <point x="373" y="180" type="line"/>
      <point x="363" y="180" type="line"/>
      <point x="363" y="734" type="line"/>
    </contour>
    <contour>
      <point x="133" y="914" type="line"/>
      <point x="133" y="0" type="line"/>
      <point x="123" y="0" type="line"/>
      <point x="123" y="914" type="line"/>
    </contour>
    <contour>
      <point x="963" y="0" type="line"/>
      <point x="591" y="460" type="line"/>
      <point x="597" y="468" type="line"/>
      <point x="976" y="0" type="line"/>
    </contour>
    <contour>
      <point x="368" y="468" type="line"/>
      <point x="593" y="468" type="line"/>
      <point x="923" y="914" type="line"/>
      <point x="936" y="914" type="line"/>
      <point x="598" y="458" type="line"/>
      <point x="368" y="458" type="line"/>
    </contour>
  </outline>
</glyph>
<glyph name="Germandbls" format="2">
  <advance width="1198"/>
  <unicode hex="1E9E"/>
  <outline>
    <contour>
      <point x="188" y="1066.0" type="line" smooth="yes"/>
      <point x="188" y="1280.0"/>
      <point x="360" y="1510.0"/>
      <point x="519" y="1510.0" type="qcurve" smooth="yes"/>
      <point x="665" y="1510.0"/>
      <point x="822" y="1372"/>
      <point x="822" y="1244.0" type="qcurve" smooth="yes"/>
      <point x="822.0" y="1181.0"/>
      <point x="757" y="1083"/>
      <point x="682" y="1019" type="qcurve" smooth="yes"/>
      <point x="621" y="967"/>
      <point x="570.0" y="894.0"/>
      <point x="570.0" y="855" type="qcurve" smooth="yes"/>
      <point x="570" y="801"/>
      <point x="708" y="711"/>
      <point x="833" y="657" type="qcurve" smooth="yes"/>
      <point x="996.0" y="587.0"/>
      <point x="1118.0" y="424.0"/>
      <point x="1118.0" y="320.0" type="qcurve" smooth="yes"/>
      <point x="1118.0" y="151.0"/>
      <point x="941.0" y="-30.0"/>
      <point x="776.0" y="-30.0" type="qcurve" smooth="yes"/>
      <point x="618.0" y="-30.0"/>
      <point x="448" y="150.0"/>
      <point x="448" y="318.0" type="qcurve" smooth="yes"/>
      <point x="448" y="330.0" type="line"/>
      <point x="458" y="330.0" type="line"/>
      <point x="458" y="318.0" type="line" smooth="yes"/>
      <point x="458" y="154.0"/>
      <point x="622" y="-22.0"/>
      <point x="775" y="-22.0" type="qcurve" smooth="yes"/>
      <point x="935" y="-22.0"/>
      <point x="1108.0" y="154"/>
      <point x="1108.0" y="318" type="qcurve" smooth="yes"/>
      <point x="1108" y="420"/>
      <point x="990" y="578"/>
      <point x="829" y="648" type="qcurve" smooth="yes"/>
      <point x="699" y="704"/>
      <point x="561.0" y="797"/>
      <point x="561.0" y="853" type="qcurve" smooth="yes"/>
      <point x="561" y="897"/>
      <point x="611" y="971"/>
      <point x="677" y="1027" type="qcurve" smooth="yes"/>
      <point x="749" y="1088.0"/>
      <point x="814" y="1184"/>
      <point x="814.0" y="1242" type="qcurve" smooth="yes"/>
      <point x="814.0" y="1369.0"/>
      <point x="660" y="1502.0"/>
      <point x="521" y="1502.0" type="qcurve" smooth="yes"/>
      <point x="365" y="1502.0"/>
      <point x="198" y="1278.0"/>
      <point x="198.0" y="1061" type="qcurve" smooth="yes"/>
      <point x="198" y="355.0" type="line" smooth="yes"/>
      <point x="198" y="126.0"/>
      <point x="145" y="-16.0"/>
      <point x="59" y="-16.0" type="qcurve" smooth="yes"/>
      <point x="48" y="-16.0"/>
      <point x="26" y="-14.0"/>
      <point x="15" y="-12.0" type="qcurve"/>
      <point x="13" y="-3.0" type="line"/>
      <point x="21" y="-6.0"/>
      <point x="37" y="-8"/>
      <point x="58" y="-8.0" type="qcurve" smooth="yes"/>
      <point x="138" y="-8.0"/>
      <point x="188" y="124"/>
      <point x="188" y="355.0" type="qcurve" smooth="yes"/>
    </contour>
  </outline>
</glyph>
<glyph name="quoteright" format="2">
  <advance width="348"/>
  <unicode hex="2019"/>
  <outline>
    <contour>
      <point x="205" y="1456" type="line"/>
      <point x="205" y="1325" type="line" smooth="yes"/>
      <point x="205" y="1226"/>
      <point x="153" y="1083"/>
      <point x="107" y="1034" type="qcurve"/>
      <point x="102" y="1038" type="line"/>
      <point x="146" y="1086"/>
      <point x="195" y="1225"/>
      <point x="195" y="1326" type="qcurve" smooth="yes"/>
      <point x="195" y="1456" type="line"/>
    </contour>
  </outline>
</glyph>
<glyph name="dagger" format="2">
  <advance width="736"/>
  <unicode hex="2020"/>
  <outline>
    <contour>
      <point x="366" y="-274" type="qcurve"/>
      <point x="362" y="8" type="line"/>
      <point x="363" y="748" type="line"/>
      <point x="363" y="977" type="line"/>
      <point x="72" y="977" type="line"/>
      <point x="72" y="985" type="line"/>
      <point x="363" y="985" type="line"/>
      <point x="362" y="1458" type="line"/>
      <point x="374" y="1458" type="line"/>
      <point x="373" y="985" type="line"/>
      <point x="664" y="985" type="line"/>
      <point x="664" y="977" type="line"/>
      <point x="373" y="977" type="line"/>
      <point x="373" y="748" type="line"/>
      <point x="374" y="8" type="line"/>
      <point x="370" y="-274" type="line"/>
      <point x="368.0" y="-276.0"/>
      <point x="368.0" y="-276.0"/>
    </contour>
  </outline>
</glyph>
<glyph name="daggerdbl" format="2">
  <advance width="732"/>
  <unicode hex="2021"/>
  <outline>
    <contour>
      <point x="72" y="75" type="line"/>
      <point x="72" y="83" type="line"/>
      <point x="363" y="83" type="line"/>
      <point x="362" y="534" type="line"/>
      <point x="364" y="977" type="line"/>
      <point x="73" y="977" type="line"/>
      <point x="73" y="985" type="line"/>
      <point x="364" y="985" type="line"/>
      <point x="363" y="1508" type="line"/>
      <point x="375" y="1508" type="line"/>
      <point x="374" y="985" type="line"/>
      <point x="660" y="985" type="line"/>
      <point x="660" y="977" type="line"/>
      <point x="374" y="977" type="line"/>
      <point x="374" y="534" type="line"/>
      <point x="373" y="83" type="line"/>
      <point x="659" y="83" type="line"/>
      <point x="659" y="75" type="line"/>
      <point x="373" y="75" type="line"/>
      <point x="374" y="-448" type="line"/>
      <point x="362" y="-448" type="line"/>
      <point x="363" y="75" type="line"/>
    </contour>
  </outline>
</glyph>
<glyph name="second" format="2">
  <advance width="814"/>
  <unicode hex="2033"/>
  <outline>
    <contour>
      <point x="100.0" y="964.0" type="line"/>
      <point x="395" y="1559" type="line"/>
      <point x="404" y="1554" type="line" smooth="yes"/>
      <point x="106" y="960.0" type="line"/>
    </contour>
    <contour>
      <point x="410.0" y="964.0" type="line"/>
      <point x="705" y="1559" type="line"/>
      <point x="714" y="1554" type="line" smooth="yes"/>
      <point x="416" y="960.0" type="line"/>
    </contour>
  </outline>
</glyph>
<glyph name="guilsinglright" format="2">
  <advance width="396"/>
  <unicode hex="203A"/>
  <guideline x="0.0" y="901.0" angle="0.0" identifier="Amp5Ormvx4"/>
  <guideline x="0.0" y="555.0" angle="0.0" identifier="JDX5vz3jKp"/>
  <outline>
    <contour>
      <point x="50" y="153" type="line"/>
      <point x="320" y="534" type="line"/>
      <point x="50" y="915" type="line"/>
      <point x="59" y="915" type="line"/>
      <point x="328" y="540" type="line"/>
      <point x="328" y="527" type="line"/>
      <point x="59" y="153" type="line"/>
    </contour>
  </outline>
</glyph>
<glyph name="commercialMinusSign" format="2">
  <advance width="633"/>
  <unicode hex="2052"/>
  <outline>
    <contour>
      <point x="20" y="-2" type="line"/>
      <point x="605" y="1501" type="line"/>
      <point x="613" y="1499" type="line"/>
      <point x="28" y="-4" type="line"/>
    </contour>
    <contour>
      <point x="418" y="28" type="qcurve" smooth="yes"/>
      <point x="418" y="45"/>
      <point x="441" y="70"/>
      <point x="460" y="70" type="qcurve" smooth="yes"/>
      <point x="478" y="70"/>
      <point x="501" y="45"/>
      <point x="501" y="28" type="qcurve" smooth="yes"/>
      <point x="501" y="12"/>
      <point x="478" y="-13"/>
      <point x="460" y="-13" type="qcurve" smooth="yes"/>
      <point x="441" y="-13"/>
      <point x="418" y="12"/>
    </contour>
    <contour>
      <point x="116" y="1424" type="qcurve" smooth="yes"/>
      <point x="116" y="1441"/>
      <point x="139" y="1466"/>
      <point x="158" y="1466" type="qcurve" smooth="yes"/>
      <point x="176" y="1466"/>
      <point x="199" y="1441"/>
      <point x="199" y="1424" type="qcurve" smooth="yes"/>
      <point x="199" y="1408"/>
      <point x="176" y="1383"/>
      <point x="158" y="1383" type="qcurve" smooth="yes"/>
      <point x="139" y="1383"/>
      <point x="116" y="1408"/>
    </contour>
  </outline>
</glyph>
<glyph name="coloncurrency" format="2">
  <advance width="1085"/>
  <unicode hex="20A1"/>
  <guideline x="0" y="1570" angle="0" identifier="0DwZ2nfhdf"/>
  <outline>
    <contour>
      <point x="839" y="1570" type="line"/>
      <point x="818" y="1429" type="line"/>
      <point x="817" y="1422" type="line"/>
      <point x="615" y="-10" type="line"/>
      <point x="614" y="-16" type="line"/>
      <point x="599" y="-125" type="line"/>
      <point x="589" y="-125" type="line"/>
      <point x="604" y="-16" type="line"/>
      <point x="605" y="-11" type="line"/>
      <point x="808" y="1426" type="line"/>
      <point x="809" y="1433" type="line"/>
      <point x="829" y="1570" type="line"/>
    </contour>
    <contour>
      <point x="598" y="1570" type="line"/>
      <point x="584" y="1474" type="line"/>
      <point x="583" y="1467" type="line"/>
      <point x="378" y="32" type="line"/>
      <point x="377" y="25" type="line"/>
      <point x="356" y="-125" type="line"/>
      <point x="345" y="-125" type="line"/>
      <point x="367" y="28" type="line"/>
      <point x="368" y="35" type="line"/>
      <point x="573" y="1469" type="line"/>
      <point x="574" y="1475" type="line"/>
      <point x="588" y="1570" type="line"/>
    </contour>
    <contour>
      <point x="86" y="689" type="qcurve" smooth="yes"/>
      <point x="86" y="767" type="line" smooth="yes"/>
      <point x="86" y="1141"/>
      <point x="367" y="1476"/>
      <point x="587" y="1476" type="qcurve" smooth="yes"/>
      <point x="808" y="1476"/>
      <point x="1037" y="1234"/>
      <point x="1037" y="1014" type="qcurve" smooth="yes"/>
      <point x="1037" y="984" type="line"/>
      <point x="1027" y="984" type="line"/>
      <point x="1027" y="1014" type="line" smooth="yes"/>
      <point x="1027" y="1232"/>
      <point x="799" y="1466"/>
      <point x="587" y="1466" type="qcurve" smooth="yes"/>
      <point x="372" y="1466"/>
      <point x="96" y="1134"/>
      <point x="96" y="767" type="qcurve" smooth="yes"/>
      <point x="96" y="689" type="line" smooth="yes"/>
      <point x="96" y="329"/>
      <point x="350" y="-9"/>
      <point x="593" y="-9" type="qcurve" smooth="yes"/>
      <point x="805" y="-9"/>
      <point x="1027" y="227"/>
      <point x="1027" y="442" type="qcurve" smooth="yes"/>
      <point x="1027" y="472" type="line"/>
      <point x="1037" y="472" type="line"/>
      <point x="1037" y="432" type="line" smooth="yes"/>
      <point x="1037" y="224"/>
      <point x="811" y="-19"/>
      <point x="585" y="-19" type="qcurve" smooth="yes"/>
      <point x="344" y="-19"/>
      <point x="86" y="322"/>
    </contour>
  </outline>
</glyph>
<glyph name="naira" format="2">
  <advance width="869"/>
  <unicode hex="20A6"/>
  <outline>
    <contour>
      <point x="-21" y="912" type="line"/>
      <point x="-21" y="922" type="line"/>
      <point x="88" y="922" type="line"/>
      <point x="88" y="922" type="line"/>
      <point x="771" y="922" type="line"/>
      <point x="771" y="922" type="line"/>
      <point x="890" y="924" type="line"/>
      <point x="890" y="914" type="line"/>
      <point x="771" y="912" type="line"/>
      <point x="771" y="912" type="line"/>
      <point x="88" y="912" type="line"/>
      <point x="88" y="912" type="line"/>
    </contour>
    <contour>
      <point x="-21" y="607" type="line"/>
      <point x="-21" y="617" type="line"/>
      <point x="88" y="617" type="line"/>
      <point x="88" y="617" type="line"/>
      <point x="771" y="617" type="line"/>
      <point x="771" y="617" type="line"/>
      <point x="890" y="619" type="line"/>
      <point x="890" y="609" type="line"/>
      <point x="771" y="607" type="line"/>
      <point x="771" y="607" type="line"/>
      <point x="88" y="607" type="line"/>
      <point x="88" y="607" type="line"/>
    </contour>
    <contour>
      <point x="777" y="1456" type="line"/>
      <point x="777" y="0" type="line"/>
      <point x="769" y="0" type="line"/>
      <point x="139" y="1335" type="line"/>
      <point x="90" y="1446" type="line"/>
      <point x="88" y="1446" type="line"/>
      <point x="93" y="1318" type="line"/>
      <point x="93" y="0" type="line"/>
      <point x="83" y="0" type="line"/>
      <point x="83" y="1456" type="line"/>
      <point x="93" y="1456" type="line"/>
      <point x="718" y="127" type="line"/>
      <point x="771" y="9" type="line"/>
      <point x="773" y="10" type="line"/>
      <point x="767" y="131" type="line"/>
      <point x="767" y="1456" type="line"/>
    </contour>
  </outline>
</glyph>
<glyph name="dong" format="2">
  <advance width="910"/>
  <unicode hex="20AB"/>
  <outline>
    <contour>
      <point x="60" y="448" type="qcurve" smooth="yes"/>
      <point x="60" y="464" type="line" smooth="yes"/>
      <point x="60" y="678"/>
      <point x="265" y="914"/>
      <point x="435" y="914" type="qcurve" smooth="yes"/>
      <point x="560" y="914"/>
      <point x="738" y="804"/>
      <point x="777" y="736" type="qcurve"/>
      <point x="777" y="1428" type="line"/>
      <point x="787" y="1428" type="line"/>
      <point x="787" y="0" type="line"/>
      <point x="777" y="0" type="line"/>
      <point x="777" y="170" type="line"/>
      <point x="776" y="170" type="line"/>
      <point x="740" y="104"/>
      <point x="564" y="-10"/>
      <point x="441" y="-10" type="qcurve" smooth="yes"/>
      <point x="267" y="-10"/>
      <point x="60" y="231"/>
    </contour>
    <contour>
      <point x="70" y="441" type="line" smooth="yes"/>
      <point x="70" y="235"/>
      <point x="272" y="0"/>
      <point x="441" y="0" type="qcurve" smooth="yes"/>
      <point x="565" y="0"/>
      <point x="737" y="113"/>
      <point x="777" y="188" type="qcurve"/>
      <point x="777" y="722" type="line"/>
      <point x="737" y="793"/>
      <point x="559" y="903"/>
      <point x="434" y="903" type="qcurve" smooth="yes"/>
      <point x="268" y="903"/>
      <point x="70" y="673"/>
      <point x="70" y="469" type="qcurve" smooth="yes"/>
    </contour>
    <contour>
      <point x="921" y="1156" type="line"/>
      <point x="285" y="1156" type="line"/>
      <point x="285" y="1166" type="line"/>
      <point x="921" y="1166" type="line"/>
    </contour>
    <contour>
      <point x="871" y="-225" type="line"/>
      <point x="27" y="-225" type="line"/>
      <point x="27" y="-215" type="line"/>
      <point x="871" y="-215" type="line"/>
    </contour>
  </outline>
</glyph>
<glyph name="uni20B1" format="2">
	<unicode hex="20B1"/>
	<advance width="984"/>
	<outline>
		<contour>
			<point x="454" y="422" type="qcurve" smooth="yes"/>
			<point x="135" y="422" type="line"/>
			<point x="135" y="432" type="line"/>
			<point x="454" y="432" type="line" smooth="yes"/>
			<point x="643" y="432"/>
			<point x="847" y="695"/>
			<point x="847" y="939" type="qcurve" smooth="yes"/>
			<point x="847" y="1183"/>
			<point x="643" y="1446"/>
			<point x="454" y="1446" type="qcurve" smooth="yes"/>
			<point x="140" y="1446" type="line"/>
			<point x="140" y="0" type="line"/>
			<point x="130" y="0" type="line"/>
			<point x="130" y="1456" type="line"/>
			<point x="454" y="1456" type="line" smooth="yes"/>
			<point x="648" y="1456"/>
			<point x="857" y="1189"/>
			<point x="857" y="940" type="qcurve" smooth="yes"/>
			<point x="857" y="696"/>
			<point x="648" y="422"/>
		</contour>
		<contour>
			<point x="-1" y="1040" type="line"/>
			<point x="-1" y="1049" type="line"/>
			<point x="135" y="1049" type="line"/>
			<point x="135" y="1049" type="line"/>
			<point x="847" y="1049" type="line"/>
			<point x="847" y="1049" type="line"/>
			<point x="969" y="1051" type="line"/>
			<point x="969" y="1042" type="line"/>
			<point x="847" y="1040" type="line"/>
			<point x="847" y="1040" type="line"/>
			<point x="135" y="1040" type="line"/>
			<point x="135" y="1040" type="line"/>
		</contour>
		<contour>
			<point x="-1" y="779" type="line"/>
			<point x="-1" y="789" type="line"/>
			<point x="135" y="789" type="line"/>
			<point x="135" y="789" type="line"/>
			<point x="840" y="789" type="line"/>
			<point x="840" y="789" type="line"/>
			<point x="969" y="791" type="line"/>
			<point x="969" y="781" type="line"/>
			<point x="840" y="779" type="line"/>
			<point x="840" y="779" type="line"/>
			<point x="135" y="779" type="line"/>
			<point x="135" y="779" type="line"/>
		</contour>
	</outline>
</glyph>
<glyph name="uni20B2" format="2">
  <advance width="986"/>
  <unicode hex="20B2"/>
  <outline>
    <contour>
      <point x="553" y="-190" type="line"/>
      <point x="553" y="-3" type="line"/>
      <point x="553" y="-1" type="line"/>
      <point x="553" y="708" type="line"/>
      <point x="563" y="708" type="line"/>
      <point x="563" y="-1" type="line"/>
      <point x="563" y="-3" type="line"/>
      <point x="563" y="-190" type="line"/>
    </contour>
    <contour>
      <point x="553" y="708" type="line"/>
      <point x="553" y="1481" type="line"/>
      <point x="553" y="1483" type="line"/>
      <point x="553" y="1582" type="line"/>
      <point x="563" y="1582" type="line"/>
      <point x="563" y="1483" type="line"/>
      <point x="563" y="1481" type="line"/>
      <point x="563" y="708" type="line"/>
    </contour>
    <contour>
      <point x="927" y="725" type="line"/>
      <point x="927" y="452" type="line" smooth="yes"/>
      <point x="927" y="232"/>
      <point x="743" y="-5"/>
      <point x="571" y="-5" type="qcurve" smooth="yes"/>
      <point x="384" y="-5"/>
      <point x="183" y="278"/>
      <point x="183" y="542" type="qcurve" smooth="yes"/>
      <point x="183" y="897" type="line" smooth="yes"/>
      <point x="183" y="1180"/>
      <point x="373" y="1485"/>
      <point x="549" y="1485" type="qcurve" smooth="yes"/>
      <point x="664" y="1485"/>
      <point x="855" y="1383"/>
      <point x="918" y="1288" type="qcurve"/>
      <point x="911" y="1282" type="line"/>
      <point x="849" y="1375"/>
      <point x="662" y="1475"/>
      <point x="550" y="1475" type="qcurve" smooth="yes"/>
      <point x="378" y="1475"/>
      <point x="193" y="1177"/>
      <point x="193" y="899" type="qcurve" smooth="yes"/>
      <point x="193" y="544" type="line" smooth="yes"/>
      <point x="193" y="284"/>
      <point x="389" y="5"/>
      <point x="572" y="5" type="qcurve" smooth="yes"/>
      <point x="739" y="5"/>
      <point x="918" y="233"/>
      <point x="917" y="445" type="qcurve" smooth="yes"/>
      <point x="917" y="715" type="line"/>
      <point x="690" y="715" type="line"/>
      <point x="690" y="725" type="line"/>
    </contour>
  </outline>
</glyph>
<glyph name="hryvnia" format="2">
  <advance width="1003"/>
  <unicode hex="20B4"/>
  <guideline x="623" y="905" angle="0" identifier="tXp4Pvfplv"/>
  <guideline x="665" y="574" angle="0" identifier="RDlBt0Kjy3"/>
  <outline>
    <contour>
      <point x="968" y="602" type="line"/>
      <point x="35" y="602" type="line"/>
      <point x="35" y="592" type="line"/>
      <point x="968" y="592" type="line"/>
    </contour>
    <contour>
      <point x="968" y="902" type="line"/>
      <point x="35" y="902" type="line"/>
      <point x="35" y="892" type="line"/>
      <point x="968" y="892" type="line"/>
    </contour>
    <contour>
      <point x="910" y="427" type="line"/>
      <point x="910" y="359" type="line" smooth="yes"/>
      <point x="910" y="184"/>
      <point x="691.0810810811" y="-10"/>
      <point x="505" y="-10" type="qcurve" smooth="yes"/>
      <point x="321.0780856423" y="-10"/>
      <point x="106" y="182"/>
      <point x="106" y="337" type="qcurve" smooth="yes"/>
      <point x="106" y="421"/>
      <point x="150" y="546"/>
      <point x="201" y="597" type="qcurve"/>
      <point x="188" y="597" type="line"/>
      <point x="139" y="547"/>
      <point x="96" y="421"/>
      <point x="96" y="338" type="qcurve" smooth="yes"/>
      <point x="96" y="177"/>
      <point x="317" y="-20"/>
      <point x="505" y="-20" type="qcurve" smooth="yes"/>
      <point x="694" y="-20"/>
      <point x="920" y="179"/>
      <point x="920" y="347" type="qcurve" smooth="yes"/>
      <point x="920" y="427" type="line"/>
    </contour>
    <contour>
      <point x="508" y="1466" type="qcurve" smooth="yes"/>
      <point x="701.4908136483" y="1466"/>
      <point x="888" y="1308"/>
      <point x="888" y="1159" type="qcurve" smooth="yes"/>
      <point x="888" y="1071"/>
      <point x="834" y="949"/>
      <point x="767" y="897" type="qcurve"/>
      <point x="782" y="897" type="line"/>
      <point x="845" y="947"/>
      <point x="899" y="1072"/>
      <point x="899" y="1159" type="qcurve" smooth="yes"/>
      <point x="899" y="1313"/>
      <point x="700.5076530612" y="1476"/>
      <point x="508" y="1476" type="qcurve" smooth="yes"/>
      <point x="300.4678663239" y="1476"/>
      <point x="118" y="1263"/>
      <point x="118" y="1135" type="qcurve" smooth="yes"/>
      <point x="118" y="1065" type="line"/>
      <point x="128" y="1065" type="line"/>
      <point x="128" y="1133" type="line" smooth="yes"/>
      <point x="128" y="1259"/>
      <point x="304.4643799472" y="1466"/>
    </contour>
  </outline>
</glyph>
<glyph name="uni20B5" format="2">
  <advance width="1024"/>
  <unicode hex="20B5"/>
  <guideline x="0.0" y="-125.0" angle="0.0" identifier="1Am3eQoiKr"/>
  <outline>
    <contour>
      <point x="550" y="-190" type="line"/>
      <point x="550" y="-23" type="line"/>
      <point x="550" y="-17" type="line"/>
      <point x="550" y="708" type="line"/>
      <point x="560" y="708" type="line"/>
      <point x="560" y="-17" type="line"/>
      <point x="560" y="-23" type="line"/>
      <point x="560" y="-190" type="line"/>
    </contour>
    <contour>
      <point x="550" y="708" type="line"/>
      <point x="550" y="1478" type="line"/>
      <point x="550" y="1482" type="line"/>
      <point x="550" y="1582" type="line"/>
      <point x="560" y="1582" type="line"/>
      <point x="560" y="1482" type="line"/>
      <point x="560" y="1478" type="line"/>
      <point x="560" y="708" type="line"/>
    </contour>
    <contour>
      <point x="916" y="436" type="qcurve" smooth="yes"/>
      <point x="917" y="460" type="line"/>
      <point x="927" y="458" type="line"/>
      <point x="926" y="436" type="line" smooth="yes"/>
      <point x="916" y="214"/>
      <point x="729" y="-25"/>
      <point x="565" y="-25" type="qcurve" smooth="yes"/>
      <point x="381" y="-25"/>
      <point x="183" y="227"/>
      <point x="183" y="462" type="qcurve" smooth="yes"/>
      <point x="183" y="1002" type="line" smooth="yes"/>
      <point x="183" y="1235"/>
      <point x="380" y="1485"/>
      <point x="563" y="1485" type="qcurve" smooth="yes"/>
      <point x="729" y="1485"/>
      <point x="917" y="1249"/>
      <point x="926" y="1030" type="qcurve" smooth="yes"/>
      <point x="927" y="1008" type="line"/>
      <point x="917" y="1006" type="line"/>
      <point x="916" y="1030" type="line" smooth="yes"/>
      <point x="907" y="1244"/>
      <point x="724" y="1475"/>
      <point x="564" y="1475" type="qcurve" smooth="yes"/>
      <point x="385" y="1475"/>
      <point x="193" y="1231"/>
      <point x="193" y="1004" type="qcurve" smooth="yes"/>
      <point x="193" y="464" type="line" smooth="yes"/>
      <point x="193" y="233"/>
      <point x="386" y="-15"/>
      <point x="566" y="-15" type="qcurve" smooth="yes"/>
      <point x="726" y="-15"/>
      <point x="907" y="219"/>
    </contour>
  </outline>
</glyph>
<glyph name="tenge" format="2">
  <advance width="940"/>
  <unicode hex="20B8"/>
  <outline>
    <contour>
      <point x="10" y="1146" type="line"/>
      <point x="10" y="1156" type="line"/>
      <point x="930" y="1156" type="line"/>
      <point x="930" y="1146" type="line"/>
      <point x="476" y="1146" type="line"/>
      <point x="476" y="0" type="line"/>
      <point x="466" y="0" type="line"/>
      <point x="466" y="1146" type="line"/>
    </contour>
    <contour>
      <point x="930" y="1456" type="line"/>
      <point x="930" y="1446" type="line"/>
      <point x="10" y="1446" type="line"/>
      <point x="10" y="1456" type="line"/>
    </contour>
  </outline>
</glyph>
<glyph name="manat" format="2">
	<unicode hex="20BC"/>
	<advance width="1014"/>
	<outline>
		<contour>
			<point x="904" y="916" type="qcurve" smooth="yes"/>
			<point x="904" y="0" type="line"/>
			<point x="894" y="0" type="line"/>
			<point x="894" y="916" type="line" smooth="yes"/>
			<point x="894" y="1152"/>
			<point x="691" y="1406"/>
			<point x="507" y="1406" type="qcurve" smooth="yes"/>
			<point x="321" y="1406"/>
			<point x="120" y="1152"/>
			<point x="120" y="916" type="qcurve" smooth="yes"/>
			<point x="120" y="0" type="line"/>
			<point x="110" y="0" type="line"/>
			<point x="110" y="916" type="line" smooth="yes"/>
			<point x="110" y="1157"/>
			<point x="316" y="1416"/>
			<point x="507" y="1416" type="qcurve" smooth="yes"/>
			<point x="695" y="1416"/>
			<point x="901" y="1157"/>
		</contour>
		<contour>
			<point x="512" y="0" type="line"/>
			<point x="502" y="0" type="line"/>
			<point x="502" y="1582" type="line"/>
			<point x="512" y="1582" type="line"/>
		</contour>
	</outline>
</glyph>
<glyph name="numero" format="2">
  <advance width="2048"/>
  <unicode hex="2116"/>
  <outline>
    <contour>
      <point x="150" y="0" type="line"/>
      <point x="150" y="1456" type="line"/>
      <point x="160" y="1456" type="line"/>
      <point x="963" y="33" type="line"/>
      <point x="965" y="29"/>
      <point x="967" y="26"/>
      <point x="969" y="22" type="qcurve"/>
      <point x="970" y="22" type="line"/>
      <point x="970" y="26"/>
      <point x="970" y="30"/>
      <point x="970" y="34" type="qcurve"/>
      <point x="970" y="1456" type="line"/>
      <point x="980" y="1456" type="line"/>
      <point x="980" y="0" type="line"/>
      <point x="971" y="0" type="line"/>
      <point x="170" y="1418" type="line"/>
      <point x="167" y="1424"/>
      <point x="164" y="1429"/>
      <point x="161" y="1435" type="qcurve"/>
      <point x="160" y="1435" type="line"/>
      <point x="160" y="1429"/>
      <point x="160" y="1423"/>
      <point x="160" y="1418" type="qcurve"/>
      <point x="160" y="0" type="line"/>
    </contour>
    <contour>
      <point x="1170" y="1002" type="qcurve" smooth="yes"/>
      <point x="1170" y="1012" type="line" smooth="yes"/>
      <point x="1170" y="1229"/>
      <point x="1381" y="1473"/>
      <point x="1573" y="1473" type="qcurve" smooth="yes"/>
      <point x="1769" y="1473"/>
      <point x="1978" y="1228"/>
      <point x="1978" y="1011" type="qcurve" smooth="yes"/>
      <point x="1978" y="1002" type="line" smooth="yes"/>
      <point x="1978" y="784"/>
      <point x="1758" y="539"/>
      <point x="1574" y="539" type="qcurve" smooth="yes"/>
      <point x="1390" y="539"/>
      <point x="1170" y="787"/>
    </contour>
    <contour>
      <point x="1180" y="1023" type="qcurve" smooth="yes"/>
      <point x="1180" y="987" type="line" smooth="yes"/>
      <point x="1180" y="794"/>
      <point x="1394" y="549"/>
      <point x="1574" y="549" type="qcurve" smooth="yes"/>
      <point x="1756" y="549"/>
      <point x="1968" y="793"/>
      <point x="1968" y="988" type="qcurve" smooth="yes"/>
      <point x="1968" y="1023" type="line" smooth="yes"/>
      <point x="1968" y="1219"/>
      <point x="1767" y="1464"/>
      <point x="1573" y="1464" type="qcurve" smooth="yes"/>
      <point x="1383" y="1464"/>
      <point x="1180" y="1219"/>
    </contour>
    <contour>
      <point x="1182" y="232" type="line"/>
      <point x="1182" y="240" type="line"/>
      <point x="1955" y="240" type="line"/>
      <point x="1955" y="232" type="line"/>
    </contour>
  </outline>
</glyph>
<glyph name="minus" format="2">
  <advance width="1082"/>
  <unicode hex="2212"/>
  <outline>
    <contour>
      <point x="110" y="670" type="line"/>
      <point x="110" y="678" type="line"/>
      <point x="972" y="678" type="line"/>
      <point x="972" y="670" type="line"/>
    </contour>
  </outline>
</glyph>
<glyph name="approxequal" format="2">
  <advance width="1024"/>
  <unicode hex="2248"/>
  <outline>
    <contour>
      <point x="46" y="804" type="qcurve"/>
      <point x="46" y="819" type="line"/>
      <point x="93" y="875"/>
      <point x="225" y="941"/>
      <point x="290" y="942" type="qcurve" smooth="yes"/>
      <point x="342" y="943"/>
      <point x="431" y="915"/>
      <point x="524" y="869" type="qcurve" smooth="yes"/>
      <point x="609" y="826"/>
      <point x="692" y="799"/>
      <point x="742" y="799" type="qcurve" smooth="yes"/>
      <point x="807" y="799"/>
      <point x="932" y="867"/>
      <point x="979" y="927" type="qcurve"/>
      <point x="979" y="913" type="line"/>
      <point x="932" y="858"/>
      <point x="808" y="790"/>
      <point x="743" y="790" type="qcurve" smooth="yes"/>
      <point x="692" y="790"/>
      <point x="609" y="816"/>
      <point x="525" y="859" type="qcurve" smooth="yes"/>
      <point x="433" y="904"/>
      <point x="344" y="932"/>
      <point x="290" y="932" type="qcurve" smooth="yes"/>
      <point x="225" y="932"/>
      <point x="93" y="864"/>
    </contour>
    <contour>
      <point x="45" y="387" type="qcurve"/>
      <point x="45" y="402" type="line"/>
      <point x="92" y="458"/>
      <point x="224" y="523"/>
      <point x="289" y="524" type="qcurve" smooth="yes"/>
      <point x="341" y="525"/>
      <point x="430" y="497"/>
      <point x="523" y="451" type="qcurve" smooth="yes"/>
      <point x="607" y="408"/>
      <point x="690" y="382"/>
      <point x="741" y="382" type="qcurve" smooth="yes"/>
      <point x="806" y="382"/>
      <point x="931" y="450"/>
      <point x="978" y="510" type="qcurve"/>
      <point x="978" y="495" type="line"/>
      <point x="931" y="440"/>
      <point x="807" y="372"/>
      <point x="742" y="372" type="qcurve" smooth="yes"/>
      <point x="691" y="372"/>
      <point x="608" y="398"/>
      <point x="524" y="441" type="qcurve" smooth="yes"/>
      <point x="432" y="486"/>
      <point x="343" y="514"/>
      <point x="289" y="514" type="qcurve" smooth="yes"/>
      <point x="224" y="514"/>
      <point x="92" y="447"/>
    </contour>
  </outline>
</glyph>
<glyph name="notequal" format="2">
  <advance width="942"/>
  <unicode hex="2260"/>
  <outline>
    <contour>
      <point x="718" y="1174" type="line"/>
      <point x="544" y="871" type="line"/>
      <point x="541" y="866" type="line"/>
      <point x="317" y="476" type="line"/>
      <point x="315" y="472" type="line"/>
      <point x="149" y="182" type="line"/>
      <point x="143" y="187" type="line"/>
      <point x="307" y="473" type="line"/>
      <point x="309" y="477" type="line"/>
      <point x="533" y="868" type="line"/>
      <point x="535" y="871" type="line"/>
      <point x="711" y="1178" type="line"/>
    </contour>
    <contour>
      <point x="100" y="470" type="line"/>
      <point x="100" y="478" type="line"/>
      <point x="842" y="478" type="line"/>
      <point x="842" y="470" type="line"/>
    </contour>
    <contour>
      <point x="100" y="865" type="line"/>
      <point x="100" y="873" type="line"/>
      <point x="842" y="873" type="line"/>
      <point x="842" y="865" type="line"/>
    </contour>
  </outline>
</glyph>
<glyph name="lessequal" format="2">
	<unicode hex="2264"/>
	<advance width="941"/>
	<outline>
		<contour>
			<point x="841" y="316" type="line"/>
			<point x="100" y="667" type="line"/>
			<point x="100" y="680" type="line"/>
			<point x="841" y="1033" type="line"/>
			<point x="841" y="1022" type="line"/>
			<point x="108" y="674" type="line"/>
			<point x="841" y="327" type="line"/>
		</contour>
		<contour>
			<point x="72" y="1" type="line"/>
			<point x="72" y="9" type="line"/>
			<point x="852" y="9" type="line"/>
			<point x="852" y="1" type="line"/>
		</contour>
	</outline>
</glyph>
<glyph name="El.bgr" format="2">
	<advance width="980"/>
	<outline>
		<contour>
			<point x="980" y="0" type="line"/>
			<point x="970" y="0" type="line"/>
			<point x="515" y="1367" type="line" smooth="yes"/>
			<point x="511" y="1378"/>
			<point x="497" y="1422"/>
			<point x="489" y="1447" type="qcurve"/>
			<point x="487" y="1447" type="line"/>
			<point x="479" y="1422"/>
			<point x="466" y="1380"/>
			<point x="460" y="1363" type="qcurve" smooth="yes"/>
			<point x="10" y="0" type="line"/>
			<point x="0" y="0" type="line"/>
			<point x="483" y="1465" type="line"/>
			<point x="493" y="1465" type="line"/>
		</contour>
	</outline>
</glyph>
<glyph name="acutecomb.case" format="2">
  <advance width="1024"/>
  <anchor x="512.0" y="1456" name="_top"/>
  <anchor x="512.0" y="1916.0" name="top"/>
  <outline>
    <contour>
      <point x="409.0" y="1604.0" type="line"/>
      <point x="692.0" y="1916.0" type="line"/>
      <point x="699.0" y="1911.0" type="line"/>
      <point x="414.0" y="1600.0" type="line"/>
    </contour>
  </outline>
</glyph>
<glyph name="acutecombstack.case" format="2">
  <advance width="1024"/>
  <outline>
    <contour>
      <point x="371" y="1620" type="line"/>
      <point x="694" y="1815" type="line"/>
      <point x="699" y="1808" type="line"/>
      <point x="374" y="1615" type="line"/>
    </contour>
  </outline>
</glyph>
<glyph name="breve.cyr.case" format="2">
  <advance width="1022"/>
  <anchor x="511.0" y="1456" name="_top"/>
  <anchor x="511.0" y="1456" name="top"/>
  <outline>
    <contour>
      <point x="511" y="1610" type="qcurve" smooth="yes"/>
      <point x="603.4618320611" y="1610"/>
      <point x="733.0566067417" y="1717.2109887645"/>
      <point x="766" y="1840" type="qcurve"/>
      <point x="776" y="1837" type="line"/>
      <point x="740.0660209239" y="1710.2329071483"/>
      <point x="606.4779411765" y="1600"/>
      <point x="511" y="1600" type="qcurve" smooth="yes"/>
      <point x="415.5220588235" y="1600"/>
      <point x="281.0288604367" y="1710.8961024278"/>
      <point x="246" y="1837" type="qcurve"/>
      <point x="256" y="1840" type="line"/>
      <point x="290.0284595329" y="1715.8962064095"/>
      <point x="418.5381679389" y="1610"/>
    </contour>
  </outline>
</glyph>
<glyph name="breveacutecomb" format="2">
  <advance width="1024"/>
  <anchor x="512.0" y="914" name="_top"/>
  <outline>
    <contour>
      <point x="772" y="1295" type="qcurve"/>
      <point x="779" y="1291" type="line"/>
      <point x="734" y="1164"/>
      <point x="608" y="1050"/>
      <point x="513" y="1050" type="qcurve" smooth="yes"/>
      <point x="418" y="1050"/>
      <point x="292" y="1164"/>
      <point x="247" y="1291" type="qcurve"/>
      <point x="254" y="1295" type="line"/>
      <point x="300" y="1172"/>
      <point x="422" y="1061"/>
      <point x="513" y="1061" type="qcurve" smooth="yes"/>
      <point x="604" y="1061"/>
      <point x="726" y="1172"/>
    </contour>
    <contour>
      <point x="482" y="1349" type="line"/>
      <point x="737" y="1630" type="line"/>
      <point x="744" y="1625" type="line"/>
      <point x="487" y="1345" type="line"/>
    </contour>
  </outline>
</glyph>
<glyph name="brevecomb.case" format="2">
  <advance width="1024"/>
  <anchor x="512.0" y="1456" name="_top"/>
  <anchor x="512.0" y="1809.0" name="top"/>
  <outline>
    <contour>
      <point x="771.0" y="1809.0" type="qcurve"/>
      <point x="778.0" y="1805.0" type="line"/>
      <point x="733.0" y="1678.0"/>
      <point x="607.0" y="1564.0"/>
      <point x="512.0" y="1564.0" type="qcurve" smooth="yes"/>
      <point x="417.0" y="1564.0"/>
      <point x="291.0" y="1678.0"/>
      <point x="246.0" y="1805.0" type="qcurve"/>
      <point x="253.0" y="1809.0" type="line"/>
      <point x="299.0" y="1686.0"/>
      <point x="421.0" y="1575.0"/>
      <point x="512.0" y="1575.0" type="qcurve" smooth="yes"/>
      <point x="603.0" y="1575.0"/>
      <point x="725.0" y="1686.0"/>
    </contour>
  </outline>
</glyph>
<glyph name="brevegravecomb.case" format="2">
  <advance width="1024"/>
  <anchor x="512.0" y="1456" name="_top"/>
  <outline>
    <contour>
      <point x="770" y="1845" type="qcurve"/>
      <point x="777" y="1841" type="line"/>
      <point x="732" y="1714"/>
      <point x="606" y="1600"/>
      <point x="511" y="1600" type="qcurve" smooth="yes"/>
      <point x="416" y="1600"/>
      <point x="290" y="1714"/>
      <point x="245" y="1841" type="qcurve"/>
      <point x="252" y="1845" type="line"/>
      <point x="298" y="1722"/>
      <point x="420" y="1611"/>
      <point x="511" y="1611" type="qcurve" smooth="yes"/>
      <point x="602" y="1611"/>
      <point x="724" y="1722"/>
    </contour>
    <contour>
      <point x="572" y="1895" type="line"/>
      <point x="247" y="2088" type="line"/>
      <point x="252" y="2095" type="line"/>
      <point x="575" y="1900" type="line"/>
    </contour>
  </outline>
</glyph>
<glyph name="brevehookabovecomb" format="2">
  <advance width="1024"/>
  <anchor x="512.0" y="914" name="_top"/>
  <outline>
    <contour>
      <point x="771" y="1295" type="qcurve"/>
      <point x="778" y="1291" type="line"/>
      <point x="733" y="1164"/>
      <point x="607" y="1050"/>
      <point x="512" y="1050" type="qcurve" smooth="yes"/>
      <point x="417" y="1050"/>
      <point x="291" y="1164"/>
      <point x="246" y="1291" type="qcurve"/>
      <point x="253" y="1295" type="line"/>
      <point x="299" y="1172"/>
      <point x="421" y="1061"/>
      <point x="512" y="1061" type="qcurve" smooth="yes"/>
      <point x="603" y="1061"/>
      <point x="725" y="1172"/>
    </contour>
    <contour>
      <point x="500" y="1345" type="line"/>
      <point x="500" y="1414" type="line" smooth="yes"/>
      <point x="500" y="1424"/>
      <point x="508" y="1433"/>
      <point x="520" y="1434" type="qcurve" smooth="yes"/>
      <point x="645" y="1440"/>
      <point x="744" y="1515"/>
      <point x="744" y="1575" type="qcurve" smooth="yes"/>
      <point x="744" y="1641"/>
      <point x="660" y="1713"/>
      <point x="582" y="1713" type="qcurve" smooth="yes"/>
      <point x="518" y="1713"/>
      <point x="404" y="1684"/>
      <point x="376" y="1668" type="qcurve"/>
      <point x="371" y="1677" type="line"/>
      <point x="402" y="1693"/>
      <point x="519" y="1723"/>
      <point x="583" y="1723" type="qcurve" smooth="yes"/>
      <point x="665" y="1723"/>
      <point x="754" y="1646"/>
      <point x="754" y="1574" type="qcurve" smooth="yes"/>
      <point x="754" y="1510"/>
      <point x="647" y="1429"/>
      <point x="510" y="1423" type="qcurve"/>
      <point x="510" y="1345" type="line"/>
    </contour>
  </outline>
</glyph>
<glyph name="breveinvertedcomb.case" format="2">
	<advance width="1024"/>
	<outline>
		<contour>
			<point x="253" y="1590" type="qcurve"/>
			<point x="246" y="1594" type="line"/>
			<point x="291" y="1721"/>
			<point x="417" y="1835"/>
			<point x="512" y="1835" type="qcurve" smooth="yes"/>
			<point x="607" y="1835"/>
			<point x="733" y="1721"/>
			<point x="778" y="1594" type="qcurve"/>
			<point x="771" y="1590" type="line"/>
			<point x="725" y="1713"/>
			<point x="603" y="1824"/>
			<point x="512" y="1824" type="qcurve" smooth="yes"/>
			<point x="421" y="1824"/>
			<point x="299" y="1713"/>
		</contour>
	</outline>
</glyph>
<glyph name="brevetildecomb" format="2">
  <advance width="1024"/>
  <anchor x="512.0" y="914" name="_top"/>
  <outline>
    <contour>
      <point x="772" y="1295" type="qcurve"/>
      <point x="779" y="1291" type="line"/>
      <point x="734" y="1164"/>
      <point x="608" y="1050"/>
      <point x="513" y="1050" type="qcurve" smooth="yes"/>
      <point x="418" y="1050"/>
      <point x="292" y="1164"/>
      <point x="247" y="1291" type="qcurve"/>
      <point x="254" y="1295" type="line"/>
      <point x="300" y="1172"/>
      <point x="422" y="1061"/>
      <point x="513" y="1061" type="qcurve" smooth="yes"/>
      <point x="604" y="1061"/>
      <point x="726" y="1172"/>
    </contour>
    <contour>
      <point x="214" y="1400" type="line"/>
      <point x="253" y="1451"/>
      <point x="335" y="1497"/>
      <point x="388" y="1497" type="qcurve" smooth="yes"/>
      <point x="414" y="1497"/>
      <point x="480" y="1473"/>
      <point x="527" y="1447" type="qcurve" smooth="yes"/>
      <point x="570" y="1424"/>
      <point x="630" y="1403"/>
      <point x="654" y="1403" type="qcurve" smooth="yes"/>
      <point x="705" y="1403"/>
      <point x="778" y="1443"/>
      <point x="808" y="1487" type="qcurve"/>
      <point x="813" y="1482" type="line"/>
      <point x="781" y="1436"/>
      <point x="706" y="1395"/>
      <point x="653" y="1395" type="qcurve" smooth="yes"/>
      <point x="627" y="1395"/>
      <point x="566" y="1416"/>
      <point x="523" y="1440" type="qcurve" smooth="yes"/>
      <point x="477" y="1466"/>
      <point x="413" y="1489"/>
      <point x="387" y="1489" type="qcurve" smooth="yes"/>
      <point x="335" y="1489"/>
      <point x="256" y="1445"/>
      <point x="219" y="1395" type="qcurve"/>
    </contour>
  </outline>
</glyph>
<glyph name="caroncomb.alt" format="2">
  <advance width="1024"/>
  <anchor x="214.5" y="914" name="_topright"/>
  <outline>
    <contour>
      <point x="429" y="1083" type="line"/>
      <point x="566" y="1463" type="line" smooth="yes"/>
      <point x="575" y="1460" type="line"/>
      <point x="437" y="1081" type="line"/>
    </contour>
  </outline>
</glyph>
<glyph name="caroncomb.case" format="2">
  <advance width="1024"/>
  <outline>
    <contour>
      <point x="505.0" y="1600.0" type="line"/>
      <point x="280.0" y="1873.0" type="line"/>
      <point x="289.0" y="1873.0" type="line"/>
      <point x="511.0" y="1606.0" type="line"/>
      <point x="730.0" y="1873.0" type="line"/>
      <point x="739.0" y="1873.0" type="line"/>
      <point x="517.0" y="1600.0" type="line"/>
    </contour>
  </outline>
</glyph>
<glyph name="cent.rvrn" format="2">
  <advance width="834"/>
  <outline>
    <contour>
      <point x="447" y="140" type="qcurve" smooth="yes"/>
      <point x="612" y="140"/>
      <point x="789" y="348"/>
      <point x="789" y="541" type="qcurve"/>
      <point x="799" y="541" type="line"/>
      <point x="799" y="343"/>
      <point x="617" y="130"/>
      <point x="447" y="130" type="qcurve" smooth="yes"/>
      <point x="262" y="130"/>
      <point x="63" y="411"/>
      <point x="63" y="673" type="qcurve" smooth="yes"/>
      <point x="63" y="710" type="line" smooth="yes"/>
      <point x="63" y="971"/>
      <point x="262" y="1252"/>
      <point x="447" y="1252" type="qcurve" smooth="yes"/>
      <point x="614" y="1252"/>
      <point x="793" y="1050"/>
      <point x="793" y="863" type="qcurve"/>
      <point x="783" y="863" type="line"/>
      <point x="783" y="1046"/>
      <point x="610" y="1242"/>
      <point x="449" y="1242" type="qcurve" smooth="yes"/>
      <point x="268" y="1242"/>
      <point x="73" y="966"/>
      <point x="73" y="710" type="qcurve" smooth="yes"/>
      <point x="73" y="673" type="line" smooth="yes"/>
      <point x="73" y="416"/>
      <point x="267" y="140"/>
    </contour>
    <contour>
      <point x="442" y="0" type="line"/>
      <point x="442" y="132" type="line"/>
      <point x="442" y="134" type="line"/>
      <point x="442" y="136" type="line"/>
      <point x="452" y="136" type="line"/>
      <point x="452" y="134" type="line"/>
      <point x="452" y="132" type="line"/>
      <point x="452" y="0" type="line"/>
    </contour>
    <contour>
      <point x="442" y="1246" type="line"/>
      <point x="442" y="1248" type="line"/>
      <point x="442" y="1250" type="line"/>
      <point x="442" y="1402" type="line"/>
      <point x="452" y="1402" type="line"/>
      <point x="452" y="1250" type="line"/>
      <point x="452" y="1248" type="line"/>
      <point x="452" y="1246" type="line"/>
    </contour>
  </outline>
</glyph>
<glyph name="circumflexacutecomb.case" format="2">
  <advance width="1024"/>
  <anchor x="512.0" y="1456" name="_top"/>
  <outline>
    <contour>
      <point x="519" y="1873" type="line"/>
      <point x="744" y="1600" type="line"/>
      <point x="735" y="1600" type="line"/>
      <point x="513" y="1867" type="line"/>
      <point x="294" y="1600" type="line"/>
      <point x="285" y="1600" type="line"/>
      <point x="507" y="1873" type="line"/>
    </contour>
    <contour>
      <point x="750" y="1778" type="line"/>
      <point x="1073" y="1973" type="line"/>
      <point x="1078" y="1966" type="line"/>
      <point x="753" y="1773" type="line"/>
    </contour>
  </outline>
</glyph>
<glyph name="circumflexhookabovecomb.case" format="2">
  <advance width="1024"/>
  <anchor x="512.0" y="1456" name="_top"/>
  <outline>
    <contour>
      <point x="520" y="1873" type="line"/>
      <point x="745" y="1600" type="line"/>
      <point x="736" y="1600" type="line"/>
      <point x="514" y="1867" type="line"/>
      <point x="295" y="1600" type="line"/>
      <point x="286" y="1600" type="line"/>
      <point x="508" y="1873" type="line"/>
    </contour>
    <contour>
      <point x="753" y="1790" type="line"/>
      <point x="753" y="1859" type="line" smooth="yes"/>
      <point x="753" y="1869"/>
      <point x="761" y="1878"/>
      <point x="773" y="1879" type="qcurve" smooth="yes"/>
      <point x="898" y="1885"/>
      <point x="997" y="1960"/>
      <point x="997" y="2020" type="qcurve" smooth="yes"/>
      <point x="997" y="2086"/>
      <point x="913" y="2158"/>
      <point x="835" y="2158" type="qcurve" smooth="yes"/>
      <point x="771" y="2158"/>
      <point x="657" y="2129"/>
      <point x="629" y="2113" type="qcurve"/>
      <point x="624" y="2122" type="line"/>
      <point x="655" y="2138"/>
      <point x="772" y="2168"/>
      <point x="836" y="2168" type="qcurve" smooth="yes"/>
      <point x="918" y="2168"/>
      <point x="1007" y="2091"/>
      <point x="1007" y="2019" type="qcurve" smooth="yes"/>
      <point x="1007" y="1955"/>
      <point x="900" y="1874"/>
      <point x="763" y="1868" type="qcurve"/>
      <point x="763" y="1790" type="line"/>
    </contour>
  </outline>
</glyph>
<glyph name="circumflexhookabovecomb" format="2">
  <advance width="1024"/>
  <anchor x="512.0" y="914" name="_top"/>
  <outline>
    <contour>
      <point x="518" y="1323" type="line"/>
      <point x="733" y="1050" type="line"/>
      <point x="724" y="1050" type="line"/>
      <point x="512" y="1317" type="line"/>
      <point x="303" y="1050" type="line"/>
      <point x="294" y="1050" type="line"/>
      <point x="506" y="1323" type="line"/>
    </contour>
    <contour>
      <point x="751" y="1223" type="line"/>
      <point x="751" y="1292" type="line" smooth="yes"/>
      <point x="751" y="1302"/>
      <point x="759" y="1311"/>
      <point x="771" y="1312" type="qcurve" smooth="yes"/>
      <point x="896" y="1318"/>
      <point x="995" y="1393"/>
      <point x="995" y="1453" type="qcurve" smooth="yes"/>
      <point x="995" y="1519"/>
      <point x="911" y="1591"/>
      <point x="833" y="1591" type="qcurve" smooth="yes"/>
      <point x="769" y="1591"/>
      <point x="655" y="1562"/>
      <point x="627" y="1546" type="qcurve"/>
      <point x="622" y="1555" type="line"/>
      <point x="653" y="1571"/>
      <point x="770" y="1601"/>
      <point x="834" y="1601" type="qcurve" smooth="yes"/>
      <point x="916" y="1601"/>
      <point x="1005" y="1524"/>
      <point x="1005" y="1452" type="qcurve" smooth="yes"/>
      <point x="1005" y="1388"/>
      <point x="898" y="1307"/>
      <point x="761" y="1301" type="qcurve"/>
      <point x="761" y="1223" type="line"/>
    </contour>
  </outline>
</glyph>
<glyph name="circumflextildecomb.case" format="2">
  <advance width="1024"/>
  <anchor x="512.0" y="1456" name="_top"/>
  <outline>
    <contour>
      <point x="519" y="1873" type="line"/>
      <point x="744" y="1600" type="line"/>
      <point x="735" y="1600" type="line"/>
      <point x="513" y="1867" type="line"/>
      <point x="294" y="1600" type="line"/>
      <point x="285" y="1600" type="line"/>
      <point x="507" y="1873" type="line"/>
    </contour>
    <contour>
      <point x="215" y="1978" type="line"/>
      <point x="250" y="2024"/>
      <point x="336" y="2075"/>
      <point x="389" y="2075" type="qcurve" smooth="yes"/>
      <point x="425" y="2075"/>
      <point x="496" y="2043"/>
      <point x="528" y="2025" type="qcurve" smooth="yes"/>
      <point x="561" y="2007"/>
      <point x="622" y="1981"/>
      <point x="655" y="1981" type="qcurve" smooth="yes"/>
      <point x="704" y="1981"/>
      <point x="777" y="2018"/>
      <point x="809" y="2065" type="qcurve"/>
      <point x="814" y="2060" type="line"/>
      <point x="781" y="2012"/>
      <point x="705" y="1973"/>
      <point x="654" y="1973" type="qcurve" smooth="yes"/>
      <point x="619" y="1973"/>
      <point x="551" y="2003"/>
      <point x="524" y="2018" type="qcurve" smooth="yes"/>
      <point x="494" y="2035"/>
      <point x="422" y="2067"/>
      <point x="388" y="2067" type="qcurve" smooth="yes"/>
      <point x="334" y="2067"/>
      <point x="252" y="2016"/>
      <point x="220" y="1973" type="qcurve"/>
    </contour>
  </outline>
</glyph>
<glyph name="commaaccentcomb.case" format="2">
  <advance width="1024"/>
  <outline>
    <contour>
      <point x="396.0" y="-598.0" type="line"/>
      <point x="428.0" y="-494.0"/>
      <point x="482.0" y="-314.0"/>
      <point x="518.0" y="-186.0" type="qcurve"/>
      <point x="530.0" y="-184.0" type="line"/>
      <point x="404.0" y="-600.0" type="line"/>
    </contour>
  </outline>
</glyph>
<glyph name="dotaccentcomb.case" format="2">
  <advance width="1024"/>
  <anchor x="512.0" y="1456" name="_top"/>
  <anchor x="512.0" y="1639.0" name="top"/>
  <outline>
    <contour>
      <point x="492.0" y="1620.0" type="qcurve" smooth="yes"/>
      <point x="492.0" y="1628.0"/>
      <point x="503.0" y="1639.0"/>
      <point x="513.0" y="1639.0" type="qcurve" smooth="yes"/>
      <point x="523.0" y="1639.0"/>
      <point x="533.0" y="1628.0"/>
      <point x="533.0" y="1620.0" type="qcurve" smooth="yes"/>
      <point x="533.0" y="1611.0"/>
      <point x="522.0" y="1600.0"/>
      <point x="512.0" y="1600.0" type="qcurve" smooth="yes"/>
      <point x="502.0" y="1600.0"/>
      <point x="492.0" y="1611.0"/>
    </contour>
  </outline>
</glyph>
<glyph name="el.bgr" format="2">
  <advance width="770"/>
  <outline>
    <contour>
      <point x="752" y="0" type="line"/>
      <point x="740" y="0" type="line"/>
      <point x="396" y="879" type="line" smooth="yes"/>
      <point x="394" y="885"/>
      <point x="389" y="898"/>
      <point x="386" y="907" type="qcurve"/>
      <point x="384" y="907" type="line"/>
      <point x="381" y="898"/>
      <point x="376" y="884"/>
      <point x="374" y="879" type="qcurve" smooth="yes"/>
      <point x="28" y="0" type="line"/>
      <point x="18" y="0" type="line"/>
      <point x="377" y="914" type="line"/>
      <point x="393" y="914" type="line"/>
    </contour>
  </outline>
</glyph>
<glyph name="gravecombstack.case" format="2">
  <advance width="1024"/>
  <outline>
    <contour>
      <point x="660" y="1615" type="line"/>
      <point x="335" y="1808" type="line"/>
      <point x="340" y="1815" type="line"/>
      <point x="663" y="1620" type="line"/>
    </contour>
  </outline>
</glyph>
<glyph name="hookabovecomb.case" format="2">
  <advance width="1024"/>
  <anchor x="512.0" y="1456" name="_top"/>
  <anchor x="512.0" y="1978.0" name="top"/>
  <outline>
    <contour>
      <point x="439.0" y="1600.0" type="line"/>
      <point x="439.0" y="1669.0" type="line" smooth="yes"/>
      <point x="439.0" y="1679.0"/>
      <point x="447.0" y="1688.0"/>
      <point x="459.0" y="1689.0" type="qcurve" smooth="yes"/>
      <point x="584.0" y="1695.0"/>
      <point x="683.0" y="1770.0"/>
      <point x="683.0" y="1830.0" type="qcurve" smooth="yes"/>
      <point x="683.0" y="1896.0"/>
      <point x="599.0" y="1968.0"/>
      <point x="521.0" y="1968.0" type="qcurve" smooth="yes"/>
      <point x="457.0" y="1968.0"/>
      <point x="343.0" y="1939.0"/>
      <point x="315.0" y="1923.0" type="qcurve"/>
      <point x="310.0" y="1932.0" type="line"/>
      <point x="341.0" y="1948.0"/>
      <point x="458.0" y="1978.0"/>
      <point x="522.0" y="1978.0" type="qcurve" smooth="yes"/>
      <point x="604.0" y="1978.0"/>
      <point x="693.0" y="1901.0"/>
      <point x="693.0" y="1829.0" type="qcurve" smooth="yes"/>
      <point x="693.0" y="1765.0"/>
      <point x="586.0" y="1684.0"/>
      <point x="449.0" y="1678.0" type="qcurve"/>
      <point x="449.0" y="1600.0" type="line"/>
    </contour>
  </outline>
</glyph>
<glyph name="hookabovecombstack.case" format="2">
  <advance width="1024"/>
  <anchor x="512.0" y="1456" name="_top"/>
  <anchor x="512.0" y="1932" name="top"/>
  <outline>
    <contour>
      <point x="439" y="1554" type="line"/>
      <point x="439" y="1623" type="line" smooth="yes"/>
      <point x="439" y="1633"/>
      <point x="447" y="1642"/>
      <point x="459" y="1643" type="qcurve" smooth="yes"/>
      <point x="584" y="1649"/>
      <point x="683" y="1724"/>
      <point x="683" y="1784" type="qcurve" smooth="yes"/>
      <point x="683" y="1850"/>
      <point x="599" y="1922"/>
      <point x="521" y="1922" type="qcurve" smooth="yes"/>
      <point x="457" y="1922"/>
      <point x="343" y="1893"/>
      <point x="315" y="1877" type="qcurve"/>
      <point x="310" y="1886" type="line"/>
      <point x="341" y="1902"/>
      <point x="458" y="1932"/>
      <point x="522" y="1932" type="qcurve" smooth="yes"/>
      <point x="604" y="1932"/>
      <point x="693" y="1855"/>
      <point x="693" y="1783" type="qcurve" smooth="yes"/>
      <point x="693" y="1719"/>
      <point x="586" y="1638"/>
      <point x="449" y="1632" type="qcurve"/>
      <point x="449" y="1554" type="line"/>
    </contour>
  </outline>
</glyph>
<glyph name="horizontalbarH" format="2">
  <advance width="1184"/>
  <outline>
    <contour>
      <point x="1168" y="1092" type="line"/>
      <point x="920" y="1092" type="line"/>
      <point x="920" y="1100" type="line"/>
      <point x="1169" y="1100" type="line"/>
    </contour>
    <contour>
      <point x="15" y="1092" type="line"/>
      <point x="14" y="1100" type="line"/>
      <point x="245" y="1100" type="line"/>
      <point x="245" y="1092" type="line"/>
    </contour>
    <contour>
      <point x="245" y="1092" type="line"/>
      <point x="245" y="1100" type="line"/>
      <point x="920" y="1100" type="line"/>
      <point x="920" y="1092" type="line"/>
    </contour>
  </outline>
</glyph>
<glyph name="horncomb.case" format="2">
	<advance width="1024"/>
	<outline>
		<contour>
			<point x="0" y="1427" type="line"/>
			<point x="106" y="1427" type="line" smooth="yes"/>
			<point x="196" y="1427"/>
			<point x="277" y="1474"/>
			<point x="277" y="1527" type="qcurve" smooth="yes"/>
			<point x="277" y="1579"/>
			<point x="252" y="1671"/>
			<point x="236" y="1711" type="qcurve"/>
			<point x="244" y="1711" type="line"/>
			<point x="260" y="1672"/>
			<point x="287" y="1578"/>
			<point x="287" y="1525" type="qcurve" smooth="yes"/>
			<point x="287" y="1468"/>
			<point x="203" y="1417"/>
			<point x="110" y="1417" type="qcurve" smooth="yes"/>
			<point x="91" y="1417"/>
			<point x="26" y="1418"/>
			<point x="0" y="1419" type="qcurve"/>
		</contour>
	</outline>
</glyph>
<glyph name="jdotless" format="2">
  <advance width="278"/>
  <outline>
    <contour>
      <point x="-100" y="-418" type="qcurve"/>
      <point x="-100" y="-406" type="line"/>
      <point x="-86" y="-413"/>
      <point x="-39" y="-426"/>
      <point x="-10" y="-426" type="qcurve" smooth="yes"/>
      <point x="68" y="-426"/>
      <point x="146" y="-312"/>
      <point x="146" y="-200" type="qcurve" smooth="yes"/>
      <point x="146" y="914" type="line"/>
      <point x="156" y="914" type="line"/>
      <point x="156" y="-210" type="line" smooth="yes"/>
      <point x="156" y="-319"/>
      <point x="71" y="-436"/>
      <point x="-10" y="-436" type="qcurve" smooth="yes"/>
      <point x="-41" y="-436"/>
      <point x="-88" y="-423"/>
    </contour>
  </outline>
</glyph>
<glyph name="macroncomb.case" format="2">
  <advance width="1024"/>
  <outline>
    <contour>
      <point x="266.0" y="1600.0" type="line"/>
      <point x="266.0" y="1608.0" type="line"/>
      <point x="758.0" y="1608.0" type="line"/>
      <point x="758.0" y="1600.0" type="line"/>
    </contour>
  </outline>
</glyph>
<glyph name="ogonekcomb.case" format="2">
  <advance width="1024"/>
  <outline>
    <contour>
      <point x="335" y="-224" type="qcurve" smooth="yes"/>
      <point x="335" y="-160"/>
      <point x="440" y="-21"/>
      <point x="537" y="43" type="qcurve"/>
      <point x="546" y="37" type="line"/>
      <point x="449" y="-27"/>
      <point x="345" y="-161"/>
      <point x="345" y="-222" type="qcurve" smooth="yes"/>
      <point x="345" y="-277"/>
      <point x="414" y="-347.0"/>
      <point x="473" y="-347.0" type="qcurve" smooth="yes"/>
      <point x="529" y="-347.0"/>
      <point x="641" y="-309.0"/>
      <point x="658" y="-301.0" type="qcurve"/>
      <point x="660" y="-311.0" type="line"/>
      <point x="641" y="-320.0"/>
      <point x="531" y="-357.0"/>
      <point x="472" y="-357.0" type="qcurve" smooth="yes"/>
      <point x="408.0" y="-357.0"/>
      <point x="335" y="-282"/>
    </contour>
  </outline>
</glyph>
<glyph name="one.prop" format="2">
  <advance width="540"/>
  <outline>
    <contour>
      <point x="380" y="0" type="line"/>
      <point x="380" y="1465" type="line"/>
      <point x="73" y="1335" type="line"/>
      <point x="69" y="1345" type="line"/>
      <point x="381" y="1476" type="line"/>
      <point x="390" y="1476" type="line"/>
      <point x="390" y="0" type="line"/>
    </contour>
  </outline>
</glyph>
<glyph name="tildecombstack.case" format="2">
  <advance width="1024"/>
  <anchor x="512.0" y="1456" name="_top"/>
  <anchor x="512.0" y="1738" name="top"/>
  <outline>
    <contour>
      <point x="227" y="1641" type="line"/>
      <point x="262" y="1687"/>
      <point x="348" y="1738"/>
      <point x="401" y="1738" type="qcurve" smooth="yes"/>
      <point x="437" y="1738"/>
      <point x="508" y="1706"/>
      <point x="540" y="1688" type="qcurve" smooth="yes"/>
      <point x="573" y="1670"/>
      <point x="634" y="1644"/>
      <point x="667" y="1644" type="qcurve" smooth="yes"/>
      <point x="716" y="1644"/>
      <point x="789" y="1681"/>
      <point x="821" y="1728" type="qcurve"/>
      <point x="826" y="1723" type="line"/>
      <point x="793" y="1675"/>
      <point x="717" y="1636"/>
      <point x="666" y="1636" type="qcurve" smooth="yes"/>
      <point x="631" y="1636"/>
      <point x="563" y="1666"/>
      <point x="536" y="1681" type="qcurve" smooth="yes"/>
      <point x="506" y="1698"/>
      <point x="434" y="1730"/>
      <point x="400" y="1730" type="qcurve" smooth="yes"/>
      <point x="346" y="1730"/>
      <point x="264" y="1679"/>
      <point x="232" y="1636" type="qcurve"/>
    </contour>
  </outline>
</glyph>
<glyph name="won.rvrn" format="2">
  <advance width="1561"/>
  <outline>
    <contour>
      <point x="420" y="-8" type="line"/>
      <point x="90" y="1456" type="line"/>
      <point x="101" y="1456" type="line"/>
      <point x="404" y="111" type="line"/>
      <point x="423" y="24" type="line"/>
      <point x="425" y="24" type="line"/>
      <point x="445" y="111" type="line"/>
      <point x="771" y="1456" type="line"/>
      <point x="784" y="1456" type="line"/>
      <point x="1103" y="112" type="line"/>
      <point x="1123" y="24" type="line"/>
      <point x="1126" y="24" type="line"/>
      <point x="1146" y="114" type="line"/>
      <point x="1460" y="1456" type="line"/>
      <point x="1471" y="1456" type="line"/>
      <point x="1128" y="-9" type="line"/>
      <point x="1121" y="-9" type="line"/>
      <point x="806" y="1322" type="line"/>
      <point x="778" y="1445" type="line"/>
      <point x="777" y="1445" type="line"/>
      <point x="750" y="1322" type="line"/>
      <point x="427" y="-8" type="line"/>
    </contour>
    <contour>
      <point x="1345" y="950" type="line"/>
      <point x="1347" y="950" type="line"/>
      <point x="1347" y="950" type="line"/>
      <point x="1509" y="952" type="line"/>
      <point x="1509" y="942" type="line"/>
      <point x="1347" y="940" type="line"/>
      <point x="1347" y="940" type="line"/>
      <point x="1345" y="940" type="line"/>
    </contour>
    <contour>
      <point x="48" y="940" type="line"/>
      <point x="48" y="950" type="line"/>
      <point x="209" y="950" type="line"/>
      <point x="209" y="950" type="line"/>
      <point x="212" y="950" type="line"/>
      <point x="212" y="940" type="line"/>
      <point x="209" y="940" type="line"/>
      <point x="209" y="940" type="line"/>
    </contour>
    <contour>
      <point x="1262" y="595" type="line"/>
      <point x="1264" y="595" type="line"/>
      <point x="1264" y="595" type="line"/>
      <point x="1470" y="597" type="line"/>
      <point x="1470" y="587" type="line"/>
      <point x="1264" y="585" type="line"/>
      <point x="1264" y="585" type="line"/>
      <point x="1262" y="585" type="line"/>
    </contour>
    <contour>
      <point x="79" y="585" type="line"/>
      <point x="79" y="595" type="line"/>
      <point x="289" y="595" type="line"/>
      <point x="289" y="595" type="line"/>
      <point x="292" y="595" type="line"/>
      <point x="292" y="585" type="line"/>
      <point x="289" y="585" type="line"/>
      <point x="289" y="585" type="line"/>
    </contour>
  </outline>
</glyph>
<glyph name="ze.bgr" format="2">
  <advance width="815"/>
  <guideline x="830" y="934" angle="0" identifier="wBSUpKrkrh"/>
  <guideline x="823" y="-464" angle="0" identifier="aBTnWP1Psr"/>
  <guideline x="830" y="934" angle="0" identifier="lD3xIigOzj"/>
  <guideline x="823" y="-464" angle="0" identifier="n6EjyB3cnu"/>
  <guideline x="830" y="934" angle="0" identifier="EwvAfUZyCy"/>
  <guideline x="823" y="-464" angle="0" identifier="3eizOClc71"/>
  <guideline x="888" y="497" angle="90" identifier="mYCJQv0oaj"/>
  <guideline x="180" y="545" angle="90" identifier="fZhlv12gP4"/>
  <outline>
    <contour>
      <point x="20" y="-95" type="qcurve" smooth="yes"/>
      <point x="20" y="-77" type="line"/>
      <point x="30" y="-77" type="line"/>
      <point x="30" y="-95" type="line" smooth="yes"/>
      <point x="30" y="-262"/>
      <point x="222" y="-454"/>
      <point x="386" y="-454" type="qcurve" smooth="yes"/>
      <point x="555" y="-454"/>
      <point x="744" y="-262"/>
      <point x="744" y="-95" type="qcurve" smooth="yes"/>
      <point x="744" y="63"/>
      <point x="560" y="257"/>
      <point x="391" y="257" type="qcurve" smooth="yes"/>
      <point x="251" y="257" type="line"/>
      <point x="251" y="267" type="line"/>
      <point x="391" y="267" type="line" smooth="yes"/>
      <point x="547" y="267"/>
      <point x="699" y="454"/>
      <point x="699" y="595" type="qcurve" smooth="yes"/>
      <point x="699" y="754"/>
      <point x="526" y="924"/>
      <point x="386" y="924" type="qcurve" smooth="yes"/>
      <point x="251" y="924"/>
      <point x="64" y="754"/>
      <point x="64" y="595" type="qcurve" smooth="yes"/>
      <point x="64" y="569" type="line"/>
      <point x="54" y="569" type="line"/>
      <point x="54" y="595" type="line" smooth="yes"/>
      <point x="54" y="760"/>
      <point x="250" y="934"/>
      <point x="386" y="934" type="qcurve" smooth="yes"/>
      <point x="529" y="934"/>
      <point x="709" y="760"/>
      <point x="709" y="595" type="qcurve" smooth="yes"/>
      <point x="709" y="449"/>
      <point x="563" y="272"/>
      <point x="450" y="263" type="qcurve"/>
      <point x="450" y="262" type="line"/>
      <point x="580" y="253"/>
      <point x="755" y="64"/>
      <point x="755" y="-95" type="qcurve" smooth="yes"/>
      <point x="755" y="-265"/>
      <point x="560" y="-464"/>
      <point x="386" y="-464" type="qcurve" smooth="yes"/>
      <point x="215" y="-464"/>
      <point x="20" y="-265"/>
    </contour>
  </outline>
</glyph>
